<?xml version="1.0" encoding="utf-8"?>
<!-- Generator: Adobe Illustrator 20.1.0, SVG Export Plug-In . SVG Version: 6.00 Build 0)  -->
<svg version="1.1" id="图层_1" xmlns="http://www.w3.org/2000/svg" xmlns:xlink="http://www.w3.org/1999/xlink" x="0px" y="0px"
	 viewBox="0 0 100 136.5" style="enable-background:new 0 0 100 136.5;" xml:space="preserve">
<style type="text/css">
	.st0{fill:#999999;}
	.st1{fill:#7F8080;}
	.st2{fill:#C3C6C8;}
</style>
<g>
	<g>
		<path class="st0" d="M21.7,107.6c4.3,0,7.3,2.6,7.3,7.5c0,4.8-3.1,7.5-7.3,7.5h-4.2v-15.1H21.7z M18.6,108.6v13.1h3.2
			c3.5,0,6-2.3,6-6.5c0-4.3-2.5-6.6-6-6.6H18.6z"/>
		<path class="st0" d="M40.8,119.7c-0.5,2-2.2,3.3-4.5,3.3c-3,0-5.2-2-5.2-5.8s2.2-5.8,5-5.8c2.8,0,4.9,1.9,4.9,6h-8.7
			c0.1,3.1,1.9,4.5,4,4.5c1.6,0,2.9-0.9,3.3-2.3H40.8z M32.2,116.6h7.5c-0.1-2.8-1.7-4.2-3.7-4.2C34,112.4,32.4,113.9,32.2,116.6z"
			/>
		<path class="st0" d="M51.7,111.8l-4.1,10.9h-1.5L42,111.8h1.2l3.6,9.9l3.7-9.9H51.7z"/>
		<path class="st0" d="M65.2,107.6v15.1h-1.4l-9-13.6v13.6h-1.1v-15.1h1.4l9,13.5v-13.5H65.2z"/>
		<path class="st0" d="M77.6,119.7c-0.5,2-2.2,3.3-4.5,3.3c-3,0-5.2-2-5.2-5.8s2.2-5.8,5-5.8c2.8,0,4.9,1.9,4.9,6h-8.7
			c0.1,3.1,1.9,4.5,4,4.5c1.6,0,2.9-0.9,3.3-2.3H77.6z M69.1,116.6h7.5c-0.1-2.8-1.7-4.2-3.7-4.2C70.9,112.4,69.3,113.9,69.1,116.6z
			"/>
		<path class="st0" d="M82,112.8v7.7c0,1,0.5,1.5,1.4,1.5c0.4,0,0.8,0,1.3-0.2v0.9c-0.5,0.1-0.9,0.2-1.4,0.2c-1.6,0-2.5-0.9-2.5-2.5
			v-7.7h-1.6v-1h1.6l0.1-2.6H82v2.6h2.5v1H82z"/>
	</g>
	<g>
		<path class="st1" d="M18.2,14.3c2.3,0,3.6,1.2,3.6,3.2c0,1.9-1.4,3.1-3.6,3.1h-2.6v3.9h-0.8V14.3H18.2z M15.6,15v4.9h2.6
			c1.8,0,2.8-0.9,2.8-2.4c0-1.6-1-2.5-2.7-2.5H15.6z"/>
		<path class="st1" d="M23.2,19.4c0-3.4,2-5.3,4.6-5.3c2.5,0,4.5,1.8,4.5,5.3c0,3.4-2,5.2-4.6,5.2C25.2,24.6,23.2,22.7,23.2,19.4z
			 M31.5,19.4c0-3-1.6-4.6-3.7-4.6c-2.1,0-3.7,1.6-3.7,4.6c0,3.1,1.7,4.6,3.7,4.6C29.8,23.9,31.5,22.5,31.5,19.4z"/>
		<path class="st1" d="M46.1,14.3l-2.8,10.1h-1l-2.7-9.3l-2.7,9.3h-1.1L33,14.3h0.8l2.5,9.3l2.7-9.3h1.1l2.6,9.3l2.5-9.3H46.1z"/>
		<path class="st1" d="M52.9,19.6h-4.8v4.1h5.2v0.7h-6V14.3h6V15h-5.2v3.9h4.8V19.6z"/>
		<path class="st1" d="M61.8,24.4l-2.7-4.1h-3v4.1h-0.8V14.3h3.4c2.3,0,3.5,1.1,3.5,3c0,1.5-1,2.4-2.4,2.8l2.8,4.3H61.8z M56.1,15
			v4.6h2.7c1.7,0,2.7-0.9,2.7-2.2c0-1.5-0.9-2.4-2.7-2.4H56.1z"/>
		<path class="st1" d="M71.8,14.3c2.1,0,3.2,1,3.2,2.5c0,1-0.7,2-1.8,2.2c1.2,0.2,2.2,1.2,2.2,2.5c0,1.7-1.2,2.8-3.6,2.8h-3.5V14.3
			H71.8z M69.1,15v3.8h2.9c1.5,0,2.2-0.9,2.2-1.9c0-1.2-0.9-1.9-2.3-1.9H69.1z M69.1,19.4v4.3h2.8c1.7,0,2.6-0.8,2.6-2.1
			c0-1.3-1-2.2-2.5-2.2H69.1z"/>
		<path class="st1" d="M76.6,14.3l3.4,5.4c1.2-1.8,2.3-3.6,3.5-5.4h0.8l-3.9,6.1v4h-0.8v-4l-3.9-6.1H76.6z"/>
	</g>
	<g>
		<g>
			<g>
				<rect x="36.7" y="75.7" class="st2" width="2.9" height="11.7"/>
				<path class="st2" d="M63.4,79.1c-0.1-0.1-1.1-0.6-2.5-0.6c-1.9,0-3.2,1.3-3.2,3.1c0,1.7,1.3,3.1,3.2,3.1c1.4,0,2.3-0.5,2.5-0.6
					v3.1c-0.4,0.1-1.4,0.4-2.7,0.4c-3.3,0-6.2-2.3-6.2-6c0-3.5,2.6-6,6.2-6c1.4,0,2.4,0.3,2.7,0.4V79.1z"/>
				<path class="st2" d="M32.6,79.1c-0.1-0.1-1.1-0.6-2.5-0.6c-1.9,0-3.2,1.3-3.2,3.1c0,1.7,1.3,3.1,3.2,3.1c1.4,0,2.3-0.5,2.5-0.6
					v3.1c-0.4,0.1-1.4,0.4-2.7,0.4c-3.3,0-6.2-2.3-6.2-6c0-3.5,2.6-6,6.2-6c1.4,0,2.4,0.3,2.7,0.4V79.1z"/>
				<path class="st2" d="M78.8,81.6c0,3.3-2.6,6-6.2,6c-3.6,0-6.2-2.7-6.2-6c0-3.3,2.6-6,6.2-6C76.2,75.5,78.8,78.2,78.8,81.6z
					 M72.7,78.5c-1.7,0-3,1.4-3,3.1c0,1.7,1.3,3.1,3,3.1c1.7,0,3-1.4,3-3.1C75.7,79.9,74.4,78.5,72.7,78.5z"/>
				<path class="st2" d="M50.8,78.4c0,0-1.3-0.4-2.3-0.4c-1.2,0-1.8,0.4-1.8,1c0,0.7,0.9,1,1.4,1.1l0.8,0.3c1.9,0.6,2.8,1.9,2.8,3.3
					c0,2.9-2.6,3.9-4.8,3.9c-1.6,0-3-0.3-3.2-0.3v-2.7c0.3,0.1,1.5,0.4,2.8,0.4c1.5,0,2.1-0.4,2.1-1.1c0-0.6-0.6-0.9-1.3-1.2
					c-0.2-0.1-0.4-0.1-0.6-0.2c-1.6-0.5-3-1.5-3-3.4c0-2.2,1.6-3.6,4.4-3.6c1.4,0,2.8,0.3,2.9,0.4V78.4z"/>
			</g>
		</g>
		<path class="st2" d="M20.6,63.2c0-0.8-0.7-1.5-1.5-1.5c-0.8,0-1.5,0.7-1.5,1.5v3.1c0,0.8,0.7,1.5,1.5,1.5c0.8,0,1.5-0.7,1.5-1.5
			V63.2z"/>
		<path class="st2" d="M28.6,59.2c0-0.8-0.7-1.5-1.5-1.5c-0.8,0-1.5,0.7-1.5,1.5v7.1c0,0.8,0.7,1.5,1.5,1.5c0.8,0,1.5-0.7,1.5-1.5
			V59.2z"/>
		<path class="st2" d="M36.7,53.7c0-0.8-0.7-1.5-1.5-1.5c-0.8,0-1.5,0.7-1.5,1.5v15.5c0,0.8,0.7,1.5,1.5,1.5c0.8,0,1.5-0.7,1.5-1.5
			V53.7z"/>
		<path class="st2" d="M44.7,59.2c0-0.8-0.7-1.5-1.5-1.5c-0.8,0-1.5,0.7-1.5,1.5v7.1c0,0.8,0.7,1.5,1.5,1.5c0.8,0,1.5-0.7,1.5-1.5
			V59.2z"/>
		<path class="st2" d="M52.7,63.2c0-0.8-0.7-1.5-1.5-1.5c-0.8,0-1.5,0.7-1.5,1.5v3.1c0,0.8,0.7,1.5,1.5,1.5c0.8,0,1.5-0.7,1.5-1.5
			V63.2z"/>
		<path class="st2" d="M60.8,59.2c0-0.8-0.7-1.5-1.5-1.5c-0.8,0-1.5,0.7-1.5,1.5v7.1c0,0.8,0.7,1.5,1.5,1.5c0.8,0,1.5-0.7,1.5-1.5
			V59.2z"/>
		<path class="st2" d="M68.8,53.7c0-0.8-0.7-1.5-1.5-1.5c-0.8,0-1.5,0.7-1.5,1.5v15.5c0,0.8,0.7,1.5,1.5,1.5c0.8,0,1.5-0.7,1.5-1.5
			V53.7z"/>
		<path class="st2" d="M76.9,59.2c0-0.8-0.7-1.5-1.5-1.5c-0.8,0-1.5,0.7-1.5,1.5v7.1c0,0.8,0.7,1.5,1.5,1.5c0.8,0,1.5-0.7,1.5-1.5
			V59.2z"/>
		<path class="st2" d="M84.9,63.2c0-0.8-0.7-1.5-1.5-1.5c-0.8,0-1.5,0.7-1.5,1.5v3.1c0,0.8,0.7,1.5,1.5,1.5c0.8,0,1.5-0.7,1.5-1.5
			V63.2z"/>
		<g>
			<path class="st2" d="M83.2,85.9v0.2h-0.5v1.4h-0.2v-1.4h-0.5v-0.2H83.2z"/>
			<path class="st2" d="M83.3,85.9h0.3l0.5,1.3h0l0.4-1.3h0.3v1.5h-0.2v-1.3h0l-0.5,1.3H84l-0.5-1.3h0v1.3h-0.2V85.9z"/>
		</g>
	</g>
</g>
</svg>
