<?xml version="1.0" encoding="utf-8"?>
<!-- Generator: Adobe Illustrator 16.0.3, SVG Export Plug-In . SVG Version: 6.00 Build 0)  -->
<!DOCTYPE svg PUBLIC "-//W3C//DTD SVG 1.1//EN" "http://www.w3.org/Graphics/SVG/1.1/DTD/svg11.dtd">
<svg version="1.1" id="Layer_1" xmlns="http://www.w3.org/2000/svg" xmlns:xlink="http://www.w3.org/1999/xlink" x="0px" y="0px"
	 width="2550px" height="2410px" viewBox="0 0 2550 2410" enable-background="new 0 0 2550 2410" xml:space="preserve">
<g>
	<polygon fill="#FFFFFF" fill-opacity="0.2" points="970.489,2288.1 931.614,2247.979 931.614,2044.189 1.59,2044.189 1.59,259.942 
		1751.49,80.926 2546,3.324 2546,2346 2332.635,2346 1736.976,1754.499 1089.293,2406.193 	"/>
	<polygon fill="#1A1A1A" fill-opacity="0.2" points="482.949,1333.189 387.69,1434.567 511.093,1552.299 609.6,1459.641 	"/>
	<polygon fill="#1A1A1A" fill-opacity="0.2" points="687.25,1150.75 592.75,1247.5 715.838,1369.119 812.75,1274 	"/>
	<polygon fill="#1A1A1A" fill-opacity="0.2" points="584.058,1484.104 483.486,1582.057 611.403,1705.406 708.674,1609.752 	"/>
	<polygon fill="#1A1A1A" fill-opacity="0.2" points="719.92,1424.472 619.604,1522.657 743.5,1649.667 844.181,1550.378 	"/>
	<polygon fill="#1A1A1A" fill-opacity="0.2" points="549.625,1202.026 450.369,1300.514 576.463,1424.381 672.462,1328.207 	"/>
	<rect x="15.03" y="1596.381" fill="#1A1A1A" fill-opacity="0.2" width="213.809" height="136.547"/>
	<rect x="85.464" y="1906.331" fill="#1A1A1A" fill-opacity="0.2" width="839.143" height="135.709"/>
	<rect x="15.03" y="1460.909" fill="#1A1A1A" fill-opacity="0.2" width="177.753" height="136.547"/>
	<rect x="47.285" y="1324.362" fill="#1A1A1A" fill-opacity="0.2" width="181.887" height="136.547"/>
	<rect x="47.285" y="1052.344" fill="#1A1A1A" fill-opacity="0.2" width="182.887" height="136.547"/>
	<rect x="7.504" y="293.272" fill="#1A1A1A" fill-opacity="0.2" width="141.521" height="523.609"/>
	<rect x="318.766" y="616.899" fill="#1A1A1A" fill-opacity="0.2" width="105.783" height="277.932"/>
	<rect x="17.18" y="1187.814" fill="#1A1A1A" fill-opacity="0.2" width="174.62" height="136.548"/>
	<rect x="15.03" y="1731.854" fill="#1A1A1A" fill-opacity="0.2" width="244.581" height="175.254"/>
	<rect x="2436" y="474" opacity="0.2" fill="#1A1A1A" enable-background="new    " width="109" height="1821"/>
	<polygon opacity="0.2" fill="#1A1A1A" enable-background="new    " points="1785.838,1800.306 1862.533,1724.326 2433.81,2299.186 
		2331.31,2344.701 	"/>
	<polygon opacity="0.2" fill="#1A1A1A" enable-background="new    " points="276.297,352.407 346.183,265.318 447.249,348.105 
		561.217,204.033 2469.647,9.427 2487.926,156.725 625.333,361 487.833,519.5 381.664,431.969 	"/>
	<polygon fill="#010101" fill-opacity="0.2" points="2189.179,946.124 2189.179,1015.788 2295.47,1015.788 2295.47,494.329 
		2189.179,494.329 2189.179,508.883 	"/>
	<rect x="2098.714" y="1263.077" fill="#010101" fill-opacity="0.2" width="213.959" height="519.309"/>
	<polygon fill="#010101" fill-opacity="0.2" points="1569.5,556.5 1670.01,458.432 2037.88,826.304 1942.5,925 	"/>
	<polygon fill="#010101" fill-opacity="0.2" points="1514,972 1614.304,873.601 1982.175,1241.473 1886.5,1339 	"/>
	<polygon fill="#010101" fill-opacity="0.2" points="925,1104.333 1024.667,1206 1393,831.667 1298.492,735.913 	"/>
	<polygon fill="#010101" fill-opacity="0.2" points="760.842,829.457 859,931 1227.5,556.5 1131.866,463.688 	"/>
	
		<text transform="matrix(0.711 -0.7032 0.711 0.7032 1183.0342 1642.3193)" fill="#989898" font-family="'Roboto-Regular'" font-size="36">RECEPTION</text>
	
		<text transform="matrix(0.711 -0.7032 0.711 0.7032 1375.0527 1831.3389)" fill="#989898" font-family="'Roboto-Regular'" font-size="36">CHECK IN</text>
	<text transform="matrix(1 0.0056 0.0056 1 1278.3184 356.6943)" fill="#989898" font-family="'Roboto-Regular'" font-size="36">ENGINEER WALK-IN</text>
	<text transform="matrix(1 0.0056 0.0056 1 213.8604 542.7139)" fill="#989898" font-family="'Roboto-Regular'" font-size="36">AD-HOC</text>
	<text transform="matrix(1 0.0056 0.0056 1 294.8691 1622.8213)" fill="#989898" font-family="'Roboto-Regular'" font-size="36">MEET</text>
	<text transform="matrix(1 0.0056 0.0056 1 295.1104 1666.0215)" fill="#989898" font-family="'Roboto-Regular'" font-size="36">THE</text>
	<text transform="matrix(1 0.0056 0.0056 1 295.3525 1709.2227)" fill="#989898" font-family="'Roboto-Regular'" font-size="36">EXECUTIVE</text>
	<text transform="matrix(1 0.0056 0.0056 1 1270.6157 707.7295)" fill="#989898" font-family="'Roboto-Regular'" font-size="36">MEET THE ENGINEER</text>
	<text transform="matrix(0.0056 -1 1 -0.0056 2376.124 1697.9023)" fill="#989898" font-family="'Roboto-Regular'" font-size="36">PARTNERS</text>
	<text transform="matrix(0.0056 -1 1 -0.0056 2376.124 878.8208)" fill="#989898" font-family="'Roboto-Regular'" font-size="36">CISCO CAMPUS</text>
	
		<text transform="matrix(0.711 -0.7032 0.711 0.7032 1317.0557 1724.792)" fill="#F79421" font-family="'Roboto-Regular'" font-size="20.7276">You are here</text>
	
		<text transform="matrix(0.711 -0.7032 0.711 0.7032 1321.7578 1675.5488)" fill="#F79421" font-family="'FontAwesome'" font-size="42.7506"></text>
	<polygon opacity="0.2" fill="#1A1A1A" enable-background="new    " points="149.333,246.667 277.251,350.593 345.393,265.081 
		449.333,349.333 561.217,204.033 	"/>
	<polygon fill="none" stroke="#1A1A1A" stroke-width="6" stroke-miterlimit="10" points="1349.435,2142.093 1089.293,2406.193 
		934,2249.277 934,2043 3,2043 3,259.517 2546,3.324 2546,2346 2332.635,2346 1735.875,1749.774 1669.899,1816.611 	"/>
	<path fill="none" stroke="#EE2D2F" stroke-width="6" stroke-miterlimit="10" d="M2145.089,2169.559"/>
	<path fill="none" stroke="#EE2D2F" stroke-width="6" stroke-miterlimit="10" d="M2230.226,2088.627"/>
	<polyline fill="none" stroke="#1A1A1A" stroke-width="4" stroke-miterlimit="10" points="2191.179,948.124 2191.179,1015.788 
		2295.47,1015.788 2295.47,494.329 2189.179,494.329 	"/>
	<polyline fill="none" stroke="#1A1A1A" stroke-width="4" stroke-miterlimit="10" points="451.55,351.332 345.393,265.081 
		277.251,350.593 145.272,242.966 	"/>
	<polyline fill="none" stroke="#1A1A1A" stroke-width="4" stroke-miterlimit="10" points="146,319 146,294 0,294 	"/>
	<polyline fill="none" stroke="#1A1A1A" stroke-width="4" stroke-miterlimit="10" points="146,793 146,817 0,817 	"/>
	<line fill="none" stroke="#1A1A1A" stroke-width="4" stroke-miterlimit="10" x1="0" y1="400" x2="147" y2="400"/>
	<line fill="none" stroke="#1A1A1A" stroke-width="4" stroke-miterlimit="10" x1="146" y1="385" x2="146" y2="413"/>
	<line fill="none" stroke="#1A1A1A" stroke-width="4" stroke-miterlimit="10" x1="0" y1="503" x2="147" y2="503"/>
	<line fill="none" stroke="#1A1A1A" stroke-width="4" stroke-miterlimit="10" x1="146" y1="489" x2="146" y2="516"/>
	<line fill="none" stroke="#1A1A1A" stroke-width="4" stroke-miterlimit="10" x1="318" y1="757" x2="424" y2="757"/>
	<line fill="none" stroke="#1A1A1A" stroke-width="4" stroke-miterlimit="10" x1="423" y1="743" x2="423" y2="772"/>
	<line fill="none" stroke="#1A1A1A" stroke-width="4" stroke-miterlimit="10" x1="0" y1="608" x2="147" y2="608"/>
	<line fill="none" stroke="#1A1A1A" stroke-width="4" stroke-miterlimit="10" x1="146" y1="595" x2="146" y2="621"/>
	<line fill="none" stroke="#1A1A1A" stroke-width="4" stroke-miterlimit="10" x1="0" y1="714" x2="147" y2="714"/>
	<line fill="none" stroke="#1A1A1A" stroke-width="4" stroke-miterlimit="10" x1="146" y1="698" x2="146" y2="725"/>
	<polyline fill="none" stroke="#1A1A1A" stroke-width="4" stroke-miterlimit="10" points="423,636 423,617 318,617 318,895 423,895 
		423,874 	"/>
	<line fill="none" stroke="#1A1A1A" stroke-width="4" stroke-miterlimit="10" x1="926" y1="1906" x2="926" y2="2045"/>
	<polyline fill="none" stroke="#1A1A1A" stroke-width="4" stroke-miterlimit="10" points="856.04,1907.533 718,1907.54 718,2045 	
		"/>
	<polyline fill="none" stroke="#1A1A1A" stroke-width="4" stroke-miterlimit="10" points="649.039,1908.084 511,1907.939 511,2046 	
		"/>
	<polyline fill="none" stroke="#1A1A1A" stroke-width="4" stroke-miterlimit="10" points="439.878,1908.485 299,1908.346 299,2046 	
		"/>
	<polyline fill="none" stroke="#1A1A1A" stroke-width="4" stroke-miterlimit="10" points="227,1359 227,1462 15,1462 15,1908.895 
		259.762,1909 	"/>
	<polyline fill="none" stroke="#1A1A1A" stroke-width="4" stroke-miterlimit="10" points="228,1087 228,1188 15,1188 15,1324 
		229,1324 	"/>
	<polyline fill="none" stroke="#1A1A1A" stroke-width="4" stroke-miterlimit="10" points="48,1186 48,1050 230,1050 	"/>
	<line fill="none" stroke="#1A1A1A" stroke-width="4" stroke-miterlimit="10" x1="190" y1="1225" x2="190" y2="1324"/>
	<line fill="none" stroke="#1A1A1A" stroke-width="4" stroke-miterlimit="10" x1="49" y1="1324" x2="49" y2="1463"/>
	<line fill="none" stroke="#1A1A1A" stroke-width="4" stroke-miterlimit="10" x1="85" y1="1908" x2="85" y2="2043"/>
	<line fill="none" stroke="#1A1A1A" stroke-width="4" stroke-miterlimit="10" x1="191" y1="1504" x2="191" y2="1599"/>
	<line fill="none" stroke="#1A1A1A" stroke-width="4" stroke-miterlimit="10" x1="258" y1="1790" x2="258" y2="1909"/>
	<polyline fill="none" stroke="#1A1A1A" stroke-width="4" stroke-miterlimit="10" points="227,1643 227,1733 258,1733 	"/>
	<line fill="none" stroke="#1A1A1A" stroke-width="4" stroke-miterlimit="10" x1="15" y1="1597" x2="227" y2="1597"/>
	<line fill="none" stroke="#1A1A1A" stroke-width="4" stroke-miterlimit="10" x1="15" y1="1733" x2="228" y2="1733"/>
	<polyline fill="none" stroke="#1A1A1A" stroke-width="4" stroke-miterlimit="10" points="520.271,1233.78 449.729,1301.384 
		609.49,1460.092 483.363,1582.016 610.541,1704.991 676.667,1637.334 	"/>
	<polyline fill="none" stroke="#1A1A1A" stroke-width="4" stroke-miterlimit="10" points="659.476,1180.975 592.672,1247.777 
		549,1203.5 	"/>
	<polyline fill="none" stroke="#1A1A1A" stroke-width="4" stroke-miterlimit="10" points="714.595,1370.753 812.345,1274.055 
		686,1150.75 	"/>
	
		<line fill="none" stroke="#1A1A1A" stroke-width="4" stroke-miterlimit="10" x1="592.672" y1="1247.777" x2="714.595" y2="1370.753"/>
	<polyline fill="none" stroke="#1A1A1A" stroke-width="4" stroke-miterlimit="10" points="456.5,1364.5 388.768,1434.867 
		510.69,1553.638 	"/>
	
		<line fill="none" stroke="#1A1A1A" stroke-width="4" stroke-miterlimit="10" x1="671.502" y1="1327.658" x2="574.805" y2="1425.407"/>
	<polyline fill="none" stroke="#1A1A1A" stroke-width="4" stroke-miterlimit="10" points="842.75,1551.25 718.8,1426.459 
		620,1524.207 	"/>
	<polyline fill="none" stroke="#1A1A1A" stroke-width="4" stroke-miterlimit="10" points="584.264,1487.42 742.975,1647.181 
		814.167,1577.667 	"/>
	
		<rect x="539.067" y="677.054" transform="matrix(0.7071 -0.7071 0.7071 0.7071 -326.7748 596.7355)" fill="#989898" width="35.738" height="31.533"/>
	
		<rect x="576.907" y="640.292" transform="matrix(0.7071 -0.7071 0.7071 0.7071 -289.6975 612.7235)" fill="#989898" width="35.734" height="31.53"/>
	
		<rect x="585.316" y="722.239" transform="matrix(0.7071 -0.7071 0.7071 0.7071 -345.1796 642.6725)" fill="#989898" width="35.737" height="31.533"/>
	
		<rect x="623.156" y="685.441" transform="matrix(0.7071 -0.7071 0.7071 0.7071 -308.0786 658.6688)" fill="#989898" width="35.733" height="31.533"/>
	
		<rect x="588.472" y="687.412" transform="matrix(0.7071 -0.7071 0.7071 0.7071 -317.5309 628.5609)" fill="#989898" width="23.069" height="20.357"/>
	
		<rect x="2231.263" y="1924.491" transform="matrix(0.7071 -0.7071 0.7071 0.7071 -713.2124 2158.6636)" fill="#989898" width="35.737" height="31.528"/>
	
		<rect x="2269.12" y="1887.931" transform="matrix(0.7071 -0.7071 0.7071 0.7071 -676.269 2174.78)" fill="#989898" width="35.732" height="31.533"/>
	
		<rect x="2277.529" y="1969.972" transform="matrix(0.7071 -0.7071 0.7071 0.7071 -731.8228 2204.7007)" fill="#989898" width="35.737" height="31.533"/>
	
		<rect x="2315.35" y="1932.954" transform="matrix(0.7071 -0.7071 0.7071 0.7071 -694.5747 2220.5415)" fill="#989898" width="35.733" height="31.53"/>
	
		<rect x="2280.68" y="1934.98" transform="matrix(0.7071 -0.7071 0.7071 0.7071 -704.0596 2190.5649)" fill="#989898" width="23.072" height="20.355"/>
	
		<rect x="1201.285" y="2207.412" transform="matrix(-0.7071 -0.7071 0.7071 -0.7071 509.1987 4657.2715)" fill="#989898" width="35.734" height="31.531"/>
	
		<rect x="1164.359" y="2169.531" transform="matrix(-0.7071 -0.7071 0.7071 -0.7071 472.9482 4566.4941)" fill="#989898" width="35.735" height="31.53"/>
	
		<rect x="1246.292" y="2161.112" transform="matrix(-0.7071 -0.7071 0.7071 -0.7071 618.7703 4610.0566)" fill="#989898" width="35.734" height="31.53"/>
	
		<rect x="1209.646" y="2123.312" transform="matrix(-0.7071 -0.7071 0.7071 -0.7071 582.9873 4519.6279)" fill="#989898" width="35.736" height="31.53"/>
	
		<rect x="1212.514" y="2169.972" transform="matrix(-0.7071 -0.7071 0.7071 -0.7071 547.9849 4587.2822)" fill="#989898" width="23.071" height="20.356"/>
	
		<rect x="981.565" y="1471.656" transform="matrix(0.7071 -0.7071 0.7071 0.7071 -759.0454 1142.3953)" fill="#989898" width="35.734" height="31.53"/>
	
		<rect x="1019.406" y="1434.869" transform="matrix(0.7071 -0.7071 0.7071 0.7071 -721.9429 1158.3433)" fill="#989898" width="35.734" height="31.53"/>
	
		<rect x="1027.825" y="1516.78" transform="matrix(0.7071 -0.7071 0.7071 0.7071 -777.3964 1188.2889)" fill="#989898" width="35.737" height="31.53"/>
	
		<rect x="1065.656" y="1480.028" transform="matrix(0.7071 -0.7071 0.7071 0.7071 -740.3295 1204.2743)" fill="#989898" width="35.734" height="31.532"/>
	
		<rect x="1030.998" y="1481.809" transform="matrix(0.7071 -0.7071 0.7071 0.7071 -749.6433 1174.1765)" fill="#989898" width="23.074" height="20.357"/>
	
		<rect x="1105.597" y="1339.154" transform="matrix(0.7071 -0.7071 0.7071 0.7071 -629.0203 1191.2893)" fill="#989898" width="35.734" height="31.53"/>
	
		<rect x="1143.43" y="1302.4" transform="matrix(0.7071 -0.7071 0.7071 0.7071 -591.9471 1207.2432)" fill="#989898" width="35.737" height="31.53"/>
	
		<rect x="1151.843" y="1384.348" transform="matrix(0.7071 -0.7071 0.7071 0.7071 -647.4292 1237.1942)" fill="#989898" width="35.735" height="31.531"/>
	
		<rect x="1189.67" y="1347.735" transform="matrix(0.7071 -0.7071 0.7071 0.7071 -610.4613 1253.217)" fill="#989898" width="35.732" height="31.532"/>
	
		<rect x="1154.998" y="1349.485" transform="matrix(0.707 -0.7072 0.7072 0.707 -619.7739 1223.3136)" fill="#989898" width="23.071" height="20.358"/>
	
		<rect x="696.729" y="542.4" transform="matrix(0.7071 -0.7071 0.7071 0.7071 -208.506 678.3564)" fill="#989898" width="35.734" height="96.934"/>
	
		<rect x="790.263" y="435.275" transform="matrix(0.7071 -0.7071 0.7071 0.7071 -82.2374 703.5414)" fill="#989898" width="35.737" height="31.53"/>
	
		<rect x="753.478" y="473.113" transform="matrix(0.7071 -0.7071 0.7071 0.7071 -119.7681 688.6129)" fill="#989898" width="35.735" height="31.533"/>
	
		<rect x="798.686" y="517.319" transform="matrix(0.7071 -0.7071 0.7071 0.7071 -137.7854 733.5275)" fill="#989898" width="35.735" height="31.533"/>
	
		<rect x="836.524" y="480.525" transform="matrix(0.7071 -0.7071 0.7071 0.7071 -100.6895 749.4875)" fill="#989898" width="35.734" height="31.53"/>
	
		<rect x="801.847" y="482.443" transform="matrix(0.7071 -0.7071 0.7071 0.7071 -110.0955 719.4603)" fill="#989898" width="23.067" height="20.357"/>
	
		<rect x="1830.821" y="350.174" transform="matrix(0.7071 -0.7071 0.7071 0.7071 282.71 1414.4019)" fill="#989898" stroke="#1A1A1A" stroke-miterlimit="10" width="35.735" height="31.533"/>
	
		<rect x="1794.073" y="388.073" transform="matrix(0.7071 -0.7071 0.7071 0.7071 245.1483 1399.516)" fill="#989898" width="35.734" height="31.53"/>
	
		<rect x="1839.212" y="432.126" transform="matrix(0.7071 -0.7071 0.7071 0.7071 227.2197 1444.3381)" fill="#989898" width="35.737" height="31.53"/>
	
		<rect x="1877.066" y="395.369" transform="matrix(0.7071 -0.7071 0.7071 0.7071 264.297 1460.3397)" fill="#989898" width="35.737" height="31.532"/>
	
		<rect x="1842.403" y="397.304" transform="matrix(0.7071 -0.7071 0.7071 0.7071 254.8424 1430.2332)" fill="#989898" width="23.071" height="20.355"/>
	
		<rect x="2016.88" y="538.348" transform="matrix(0.7071 -0.7071 0.7071 0.7071 204.1464 1601.0795)" fill="#989898" width="35.734" height="31.53"/>
	
		<rect x="1980.071" y="576.153" transform="matrix(0.7071 -0.7071 0.7071 0.7071 166.6141 1586.0891)" fill="#989898" width="35.734" height="31.529"/>
	
		<rect x="2025.258" y="620.278" transform="matrix(0.7071 -0.7071 0.7071 0.7071 148.6858 1631.0375)" fill="#989898" width="35.734" height="31.531"/>
	
		<rect x="2063.115" y="583.53" transform="matrix(0.7071 -0.7071 0.7071 0.7071 185.7407 1647.0063)" fill="#989898" width="35.735" height="31.53"/>
	
		<rect x="2028.411" y="585.39" transform="matrix(0.7071 -0.7071 0.7071 0.7071 176.3262 1616.842)" fill="#989898" width="23.071" height="20.356"/>
	<rect x="1375" y="399" fill="#989898" width="33" height="35"/>
	<rect x="1375" y="447" fill="#989898" width="33" height="38"/>
	<rect x="1442" y="399" fill="#989898" width="30" height="35"/>
	<rect x="1442" y="447" fill="#989898" width="30" height="38"/>
	<rect x="1412" y="431" fill="#989898" width="24" height="20"/>
	<rect x="1376" y="608" fill="#989898" width="97" height="44"/>
	
		<rect x="1866.563" y="1491.66" transform="matrix(0.7071 -0.7071 0.7071 0.7071 -509.5078 1797.3896)" fill="#989898" width="96.692" height="44.142"/>
	
		<rect x="1893.887" y="477.359" transform="matrix(0.7071 -0.7071 0.7071 0.7071 215.7095 1519.6354)" fill="#989898" width="96.696" height="44.144"/>
	
		<rect x="1096.135" y="1597.782" transform="matrix(0.7071 -0.7071 0.7071 0.7071 -767.8386 1370.218)" fill="#989898" width="347.891" height="28.38"/>
	<polyline fill="none" stroke="#989898" stroke-width="6" stroke-miterlimit="10" points="1399.789,1500.229 1326.467,1426.909 
		1084.846,1668.533 1158.165,1741.854 	"/>
	<path fill="#989898" d="M1326.312,1095.714c-0.937-3.589-1.48-7.341-1.48-11.226c0-24.854,20.376-45.007,45.513-45.007
		c5.027,0,9.855,0.844,14.386,2.332l10.973-27.448c-7.928-2.807-16.445-4.417-25.355-4.417c-41.638,0-75.38,33.371-75.38,74.54
		c0,9.093,1.724,17.756,4.732,25.812L1326.312,1095.714z"/>
	<path fill="#989898" d="M1407.021,1066.725c0.933,3.596,1.479,7.34,1.479,11.228c0,24.858-20.371,45.006-45.508,45.006
		c-5.038,0-9.859-0.837-14.39-2.334l-10.973,27.455c7.927,2.806,16.443,4.412,25.359,4.412c41.627,0,75.379-33.367,75.379-74.539
		c0-9.088-1.728-17.754-4.74-25.812L1407.021,1066.725z"/>
	<path fill="#989898" d="M1368.913,1064.094c9.818,0,17.781,7.875,17.781,17.579c0,9.711-7.963,17.583-17.781,17.583
		c-9.813,0-17.777-7.873-17.777-17.583C1351.136,1071.968,1359.101,1064.094,1368.913,1064.094z"/>
	<path fill="#989898" d="M1456.642,1223.943c-0.936-3.59-1.479-7.34-1.479-11.229c0-24.854,20.376-45.005,45.513-45.005
		c5.028,0,9.856,0.842,14.385,2.332l10.976-27.449c-7.929-2.806-16.447-4.417-25.358-4.417c-41.636,0-75.378,33.371-75.378,74.54
		c0,9.095,1.724,17.756,4.732,25.813L1456.642,1223.943z"/>
	<path fill="#989898" d="M1537.353,1194.955c0.934,3.593,1.479,7.34,1.479,11.226c0,24.858-20.371,45.007-45.509,45.007
		c-5.036,0-9.857-0.838-14.389-2.335l-10.972,27.454c7.929,2.809,16.443,4.413,25.358,4.413c41.628,0,75.379-33.368,75.379-74.539
		c0-9.088-1.725-17.754-4.737-25.81L1537.353,1194.955z"/>
	<path fill="#989898" d="M1499.244,1192.324c9.819,0,17.782,7.873,17.782,17.577c0,9.712-7.963,17.585-17.782,17.585
		c-9.813,0-17.772-7.873-17.772-17.585C1481.471,1200.197,1489.431,1192.324,1499.244,1192.324z"/>
	<path fill="#989898" d="M1572.26,1354.275c-0.938-3.59-1.481-7.344-1.481-11.229c0-24.854,20.375-45.006,45.514-45.006
		c5.027,0,9.854,0.843,14.382,2.332l10.976-27.449c-7.929-2.807-16.444-4.418-25.355-4.418c-41.635,0-75.379,33.372-75.379,74.541
		c0,9.094,1.724,17.754,4.73,25.813L1572.26,1354.275z"/>
	<path fill="#989898" d="M1652.969,1325.285c0.933,3.595,1.479,7.34,1.479,11.226c0,24.86-20.374,45.007-45.508,45.007
		c-5.039,0-9.861-0.838-14.391-2.335l-10.971,27.456c7.926,2.809,16.441,4.412,25.357,4.412c41.627,0,75.377-33.365,75.377-74.54
		c0-9.088-1.724-17.752-4.737-25.809L1652.969,1325.285z"/>
	<path fill="#989898" d="M1614.86,1322.655c9.817,0,17.781,7.873,17.781,17.578c0,9.712-7.964,17.584-17.781,17.584
		c-9.813,0-17.775-7.872-17.775-17.584C1597.085,1330.528,1605.048,1322.655,1614.86,1322.655z"/>
	<g>
		<polyline fill="none" stroke="#1A1A1A" stroke-width="4" stroke-miterlimit="10" points="1569.668,557.667 1669.334,459.333 
			2038.001,826.667 1942.334,922.333 1898.001,878.667 		"/>
		<polyline fill="none" stroke="#1A1A1A" stroke-width="4" stroke-miterlimit="10" points="1596.668,582 1647.334,631.333 
			1743.334,533.333 		"/>
		<polyline fill="none" stroke="#1A1A1A" stroke-width="4" stroke-miterlimit="10" points="1671.668,656 1722.334,706.333 
			1818.334,608.333 		"/>
		<polyline fill="none" stroke="#1A1A1A" stroke-width="4" stroke-miterlimit="10" points="1748.668,731 1795.334,777.333 
			1890.334,680.333 		"/>
		<polyline fill="none" stroke="#1A1A1A" stroke-width="4" stroke-miterlimit="10" points="1820.668,802 1871.334,851.333 
			1966.334,754.333 		"/>
	</g>
	<g>
		<polyline fill="none" stroke="#1A1A1A" stroke-width="4" stroke-miterlimit="10" points="860.667,929 762.334,829.334 
			1129.668,460.667 1225.334,556.334 1181.668,600.667 		"/>
		<polyline fill="none" stroke="#1A1A1A" stroke-width="4" stroke-miterlimit="10" points="885.001,902 934.334,851.334 
			836.334,755.334 		"/>
		<polyline fill="none" stroke="#1A1A1A" stroke-width="4" stroke-miterlimit="10" points="959.001,827 1009.334,776.334 
			911.334,680.334 		"/>
		<polyline fill="none" stroke="#1A1A1A" stroke-width="4" stroke-miterlimit="10" points="1034.001,750 1080.334,703.334 
			983.334,608.334 		"/>
		<polyline fill="none" stroke="#1A1A1A" stroke-width="4" stroke-miterlimit="10" points="1105.001,678 1154.334,627.334 
			1057.334,532.334 		"/>
	</g>
	<g>
		<polyline fill="none" stroke="#1A1A1A" stroke-width="4" stroke-miterlimit="10" points="1025.668,1204 927.334,1104.334 
			1294.668,735.667 1390.334,831.334 1346.668,875.667 		"/>
		<polyline fill="none" stroke="#1A1A1A" stroke-width="4" stroke-miterlimit="10" points="1050.001,1177 1099.334,1126.334 
			1001.334,1030.334 		"/>
		<polyline fill="none" stroke="#1A1A1A" stroke-width="4" stroke-miterlimit="10" points="1124.001,1102 1174.334,1051.334 
			1076.334,955.334 		"/>
		<polyline fill="none" stroke="#1A1A1A" stroke-width="4" stroke-miterlimit="10" points="1199.001,1025 1245.334,978.334 
			1148.334,883.334 		"/>
		<polyline fill="none" stroke="#1A1A1A" stroke-width="4" stroke-miterlimit="10" points="1270.001,953 1319.334,902.334 
			1222.334,807.334 		"/>
	</g>
	<g>
		<polyline fill="none" stroke="#1A1A1A" stroke-width="4" stroke-miterlimit="10" points="1513.668,971.667 1613.334,873.333 
			1982.001,1240.666 1886.334,1336.334 1842.001,1292.667 		"/>
		<polyline fill="none" stroke="#1A1A1A" stroke-width="4" stroke-miterlimit="10" points="1540.668,996 1591.334,1045.333 
			1687.334,947.333 		"/>
		<polyline fill="none" stroke="#1A1A1A" stroke-width="4" stroke-miterlimit="10" points="1615.668,1070 1666.334,1120.333 
			1762.334,1022.333 		"/>
		<polyline fill="none" stroke="#1A1A1A" stroke-width="4" stroke-miterlimit="10" points="1692.668,1145 1739.334,1191.334 
			1834.334,1094.333 		"/>
		<polyline fill="none" stroke="#1A1A1A" stroke-width="4" stroke-miterlimit="10" points="1764.668,1216 1815.334,1265.334 
			1910.334,1168.333 		"/>
	</g>
	<polyline fill="none" stroke="#1A1A1A" stroke-width="4" stroke-miterlimit="10" points="2191,525 2191,600 2295,600 	"/>
	<polyline fill="none" stroke="#1A1A1A" stroke-width="4" stroke-miterlimit="10" points="2191,631 2191,704 2295,704 	"/>
	<polyline fill="none" stroke="#1A1A1A" stroke-width="4" stroke-miterlimit="10" points="2191,735 2191,808 2295,808 	"/>
	<polyline fill="none" stroke="#1A1A1A" stroke-width="4" stroke-miterlimit="10" points="2191,842 2191,915 2295,915 	"/>
	<polyline fill="none" stroke="#1A1A1A" stroke-width="4" stroke-miterlimit="10" points="2313,1365 2101,1365 2101,1332 	"/>
	<polyline fill="none" stroke="#1A1A1A" stroke-width="4" stroke-miterlimit="10" points="2313,1469 2101,1469 2101,1436 	"/>
	<polyline fill="none" stroke="#1A1A1A" stroke-width="4" stroke-miterlimit="10" points="2313,1572 2101,1572 2101,1539 	"/>
	<polyline fill="none" stroke="#1A1A1A" stroke-width="4" stroke-miterlimit="10" points="2313,1676 2101,1676 2101,1643 	"/>
	<line fill="none" stroke="#1A1A1A" stroke-width="4" stroke-miterlimit="10" x1="1786.5" y1="1799.5" x2="1863" y2="1725"/>
	<polyline fill="none" stroke="#1A1A1A" stroke-width="4" stroke-miterlimit="10" points="1854.293,1872.811 1931.877,1798.381 
		1885.5,1752.333 	"/>
	<polyline fill="none" stroke="#1A1A1A" stroke-width="4" stroke-miterlimit="10" points="1930.293,1948.811 2007.877,1874.381 
		1961.5,1828.333 	"/>
	<polyline fill="none" stroke="#1A1A1A" stroke-width="4" stroke-miterlimit="10" points="2001.293,2020.811 2078.877,1946.381 
		2032.5,1900.333 	"/>
	<polyline fill="none" stroke="#1A1A1A" stroke-width="4" stroke-miterlimit="10" points="2078.293,2097.811 2155.877,2023.381 
		2109.5,1977.333 	"/>
	<polyline fill="none" stroke="#1A1A1A" stroke-width="4" stroke-miterlimit="10" points="2149.293,2168.811 2226.877,2094.381 
		2180.5,2048.333 	"/>
	<polyline fill="none" stroke="#1A1A1A" stroke-width="4" stroke-miterlimit="10" points="2221.293,2241.811 2298.877,2167.381 
		2252.5,2121.333 	"/>
	<polyline fill="none" stroke="#1A1A1A" stroke-width="4" stroke-miterlimit="10" points="2295.293,2316.811 2372.877,2242.381 
		2326.5,2196.333 	"/>
	
		<line fill="none" stroke="#1A1A1A" stroke-width="4" stroke-miterlimit="10" x1="2372.877" y1="2242.381" x2="2435.667" y2="2305.001"/>
	<polyline fill="none" stroke="#1A1A1A" stroke-width="4" stroke-miterlimit="10" points="2545,581 2438,581 2438,512 	"/>
	<polyline fill="none" stroke="#1A1A1A" stroke-width="4" stroke-miterlimit="10" points="2545,685 2438,685 2438,616 	"/>
	<polyline fill="none" stroke="#1A1A1A" stroke-width="4" stroke-miterlimit="10" points="2545,788 2438,788 2438,719 	"/>
	<polyline fill="none" stroke="#1A1A1A" stroke-width="4" stroke-miterlimit="10" points="2545,893 2438,893 2438,824 	"/>
	<polyline fill="none" stroke="#1A1A1A" stroke-width="4" stroke-miterlimit="10" points="2545,995 2438,995 2438,926 	"/>
	<polyline fill="none" stroke="#1A1A1A" stroke-width="4" stroke-miterlimit="10" points="2545,1097 2438,1097 2438,1028 	"/>
	<polyline fill="none" stroke="#1A1A1A" stroke-width="4" stroke-miterlimit="10" points="2545,1203 2438,1203 2438,1134 	"/>
	<polyline fill="none" stroke="#1A1A1A" stroke-width="4" stroke-miterlimit="10" points="2545,1307 2438,1307 2438,1238 	"/>
	<polyline fill="none" stroke="#1A1A1A" stroke-width="4" stroke-miterlimit="10" points="2545,1414 2438,1414 2438,1345 	"/>
	<polyline fill="none" stroke="#1A1A1A" stroke-width="4" stroke-miterlimit="10" points="2545,1518 2438,1518 2438,1449 	"/>
	<polyline fill="none" stroke="#1A1A1A" stroke-width="4" stroke-miterlimit="10" points="2545,1622 2438,1622 2438,1553 	"/>
	<polyline fill="none" stroke="#1A1A1A" stroke-width="4" stroke-miterlimit="10" points="2545,1724 2438,1724 2438,1655 	"/>
	<polyline fill="none" stroke="#1A1A1A" stroke-width="4" stroke-miterlimit="10" points="2545,1830 2438,1830 2438,1761 	"/>
	<polyline fill="none" stroke="#1A1A1A" stroke-width="4" stroke-miterlimit="10" points="2545,1933 2438,1933 2438,1864 	"/>
	<polyline fill="none" stroke="#1A1A1A" stroke-width="4" stroke-miterlimit="10" points="2545,2037 2438,2037 2438,1968 	"/>
	<polyline fill="none" stroke="#1A1A1A" stroke-width="4" stroke-miterlimit="10" points="2545,2140 2438,2140 2438,2071 	"/>
	<polyline fill="none" stroke="#1A1A1A" stroke-width="4" stroke-miterlimit="10" points="2545,2246 2438,2246 2438,2177 	"/>
	<polyline fill="none" stroke="#1A1A1A" stroke-width="4" stroke-miterlimit="10" points="2545,2346 2438,2346 2438,2277 	"/>
	<line fill="none" stroke="#1A1A1A" stroke-width="4" stroke-miterlimit="10" x1="2436" y1="475" x2="2547" y2="475"/>
	<polyline fill="none" stroke="#1A1A1A" stroke-width="4" stroke-miterlimit="10" points="489,518 384,432 562,205 2471,11 
		2488,156 2423,162 	"/>
	<polyline fill="none" stroke="#1A1A1A" stroke-width="4" stroke-miterlimit="10" points="514,486.167 559,435 448,349 	"/>
	<polyline fill="none" stroke="#1A1A1A" stroke-width="4" stroke-miterlimit="10" points="585.167,404.667 624,359 511,269 	"/>
	<polyline fill="none" stroke="#1A1A1A" stroke-width="4" stroke-miterlimit="10" points="610.5,200 624,359 632.5,358 	"/>
	<polyline fill="none" stroke="#1A1A1A" stroke-width="4" stroke-miterlimit="10" points="711.5,189.5 725.5,348.5 671,353.5 	"/>
	<polyline fill="none" stroke="#1A1A1A" stroke-width="4" stroke-miterlimit="10" points="816.5,177.5 830.5,336.5 765,343.5 	"/>
	<polyline fill="none" stroke="#1A1A1A" stroke-width="4" stroke-miterlimit="10" points="919.5,168 933.5,325.591 869,332.5 	"/>
	<polyline fill="none" stroke="#1A1A1A" stroke-width="4" stroke-miterlimit="10" points="1020.5,157.5 1034.5,314.573 970,321.5 	
		"/>
	<polyline fill="none" stroke="#1A1A1A" stroke-width="4" stroke-miterlimit="10" points="1124.5,146.5 1138.5,303.091 1074,310 	
		"/>
	<polyline fill="none" stroke="#1A1A1A" stroke-width="4" stroke-miterlimit="10" points="1228.5,135.5 1242.5,290.646 1178,297.5 	
		"/>
	<polyline fill="none" stroke="#1A1A1A" stroke-width="4" stroke-miterlimit="10" points="1329.5,126.5 1343.5,280.164 1279,287 	
		"/>
	<polyline fill="none" stroke="#1A1A1A" stroke-width="4" stroke-miterlimit="10" points="1433.5,115.5 1447.5,268.5 1383,275.5 	
		"/>
	<polyline fill="none" stroke="#1A1A1A" stroke-width="4" stroke-miterlimit="10" points="1537.5,105.5 1551.5,257.754 1487,264.5 	
		"/>
	<polyline fill="none" stroke="#1A1A1A" stroke-width="4" stroke-miterlimit="10" points="1641.5,93.5 1655.5,246.164 1591,253 	"/>
	<polyline fill="none" stroke="#1A1A1A" stroke-width="4" stroke-miterlimit="10" points="1745.5,82.5 1759.5,234.718 1695,241.5 	
		"/>
	<polyline fill="none" stroke="#1A1A1A" stroke-width="4" stroke-miterlimit="10" points="1850.5,72.5 1864.5,223.791 1800,230.5 	
		"/>
	<polyline fill="none" stroke="#1A1A1A" stroke-width="4" stroke-miterlimit="10" points="1954,63 1967.5,212.5 1903,219 	"/>
	<polyline fill="none" stroke="#1A1A1A" stroke-width="4" stroke-miterlimit="10" points="2057.5,48.5 2071.5,200.718 2007,207.5 	
		"/>
	<polyline fill="none" stroke="#1A1A1A" stroke-width="4" stroke-miterlimit="10" points="2160.5,38.5 2174.5,189.273 2110,196 	"/>
	<polyline fill="none" stroke="#1A1A1A" stroke-width="4" stroke-miterlimit="10" points="2264,32 2277.5,178.164 2213,185 	"/>
	<polyline fill="none" stroke="#1A1A1A" stroke-width="4" stroke-miterlimit="10" points="2370,20 2383.5,166.164 2319,173 	"/>
	<polyline fill="none" stroke="#1A1A1A" stroke-width="4" stroke-miterlimit="10" points="2099.714,1263.077 2313.673,1263.077 
		2313.673,1782.386 2101.714,1782.386 2101.714,1742 	"/>
</g>
</svg>
