<?xml version="1.0" encoding="utf-8"?>
<!-- Generator: Adobe Illustrator 21.1.0, SVG Export Plug-In . SVG Version: 6.00 Build 0)  -->
<svg version="1.1" id="图层_1" xmlns="http://www.w3.org/2000/svg" xmlns:xlink="http://www.w3.org/1999/xlink" x="0px" y="0px"
	 viewBox="0 0 768 1366" style="enable-background:new 0 0 768 1366;" xml:space="preserve">
<style type="text/css">
	.st0{fill:#FFFFFF;stroke:#000000;stroke-miterlimit:10;}
	.st1{fill:none;stroke:#000000;stroke-miterlimit:10;stroke-dasharray:12;}
	.st2{fill:none;stroke:#000000;stroke-miterlimit:10;stroke-dasharray:12.1177,12.1177;}
	.st3{fill:none;stroke:#000000;stroke-width:10;stroke-miterlimit:10;}
	.st4{stroke:#FFFFFF;stroke-miterlimit:10;}
	.st5{fill:#28B9E0;}
</style>
<polygon id="board" class="st0" points="0,0 0,1366 768,1366 768,0 669,0 669,66 119,66 119,0 "/>
<rect id="zone-room" x="110" y="127" class="st1" width="582" height="382"/>
<g>
	<ellipse class="st2" cx="384" cy="914.5" rx="143.5" ry="222.5"/>
</g>
<polyline id="inroom" class="st3" points="465,157 626,157 626,466 158,466 158,157 324,157 "/>
<circle id="inroom-circle" class="st4" cx="281.5" cy="287.5" r="29.5"/>
<polygon id="inroom-polygon" class="st4" points="585.5,200.7 482,200.7 482.5,230.5 557.5,230.5 559.5,421.5 586.5,421.5 "/>
<rect id="ellipse-b" x="310.5" y="799.5" class="st5" width="157" height="92"/>
<rect id="ellipse-a" x="311" y="948" class="st5" width="157" height="92"/>
</svg>
