<?xml version="1.0" encoding="utf-8"?>
<!-- Generator: Adobe Illustrator 23.0.3, SVG Export Plug-In . SVG Version: 6.00 Build 0)  -->
<svg version="1.1" xmlns="http://www.w3.org/2000/svg" xmlns:xlink="http://www.w3.org/1999/xlink" x="0px" y="0px"
	 viewBox="0 0 4086.3 2401.9" style="enable-background:new 0 0 4086.3 2401.9;" xml:space="preserve">
<style type="text/css">
	.st0{fill:#FFFFFF;stroke:#020000;stroke-width:3;stroke-miterlimit:10;}
	.st1{fill:#808080;}
</style>
<g id="Layer_2">
	<polygon class="st0" points="1938.5,174.7 1853.6,174.7 1177.7,174.7 1177.7,935.5 1938.5,935.5 1938.5,666.2 3216.2,666.2 
		3216.2,1638.4 3216.2,1696.7 3216.2,1847.3 1177.7,1847.3 1177.7,1230.9 16.5,1230.9 16.5,2270.8 1154.5,2270.8 1177.7,2270.8 
		3216.2,2270.8 3274.1,2270.8 3984.9,2270.8 3984.9,1696.7 3984.9,1638.4 3984.9,666.2 3984.9,588.1 3984.9,174.7 	"/>
</g>
<g id="Layer_1">
	<g id="blue">
	</g>
	<g id="red">
	</g>
	<g id="purple">
		<g>
			<polygon class="st1" points="3030.3,1583 3030.3,1582.3 3030.3,1464.8 2885.8,1464.8 2885.1,1582.3 2832.6,1583 2832.6,1670.8 
				3030.3,1670.8 			"/>
			<polygon class="st1" points="1078.6,1927.1 1078.6,2035.6 1120.8,2036.2 1120.8,2073.6 1120.8,2160 1172.6,2160 1172.6,2073.6 
				1172.6,2037 1173.3,2037 1173.3,2035.6 1173.3,1927.1 1078.6,1925.7 			"/>
			<rect x="1956.3" y="1236" class="st1" width="107.8" height="132"/>
			<polygon class="st1" points="1075.9,1742.6 1179.5,1744.7 1179.5,1742.6 1179.5,1610.6 1075.9,1610.6 			"/>
			<polygon class="st1" points="3206.5,808.2 3159.5,808.2 3142.2,808.2 3142.2,882.9 3206.5,882.9 			"/>
			<polygon class="st1" points="3602.5,717 3602.5,768.2 3602.5,920.9 3715.1,920.9 3715.1,768.2 3664,717 			"/>
			<polygon class="st1" points="3366.1,1059.1 3366.1,918.1 3264.5,918.1 3271.4,1059.1 3276.3,1162.8 3366.1,1162.8 			"/>
			<polygon class="st1" points="3283.9,1331.4 3368.9,1331.4 3368.9,1210.5 3278.3,1210.5 			"/>
			<polygon class="st1" points="2455.9,1791 2586.6,1791.7 2586.6,1791 2586.6,1712.9 2455.9,1712.9 			"/>
			<polygon class="st1" points="2588.6,1790.3 2588.6,1791.7 2702.7,1790.3 2702.7,1715 2588.6,1715 			"/>
			<polygon class="st1" points="2831.2,1715 2705.4,1715 2705.4,1787.6 2705.4,1790.3 2831.2,1787.6 			"/>
			<polygon class="st1" points="2834,1787.6 2959.8,1784.8 2959.8,1715 2834,1715 2834,1784.8 			"/>
			<polygon class="st1" points="2962.5,1781.3 2962.5,1784.8 3081.4,1781.3 3081.4,1715 2962.5,1715 			"/>
			<rect x="1953.5" y="678.4" class="st1" width="107.8" height="163.1"/>
			<rect x="1956.3" y="1101.3" class="st1" width="107.8" height="132"/>
			<rect x="1949.4" y="1370.8" class="st1" width="114.7" height="92.6"/>
			<polygon class="st1" points="1742.7,1928 1742.7,1955.7 1794.6,1955.7 1822.2,1928 1822.2,1858.3 1742.7,1858.3 			"/>
			<rect x="1651.5" y="1858.3" class="st1" width="88.4" height="97.4"/>
			<polygon class="st1" points="1364.8,1755.8 1431.1,1759.9 1431.1,1755.8 1431.1,1688 1364.8,1688 			"/>
			<polygon class="st1" points="1433.9,1759.9 1500.2,1763.4 1500.2,1759.9 1500.2,1688 1433.9,1688 			"/>
			<polygon class="st1" points="1557.5,1457.9 1305.3,1457.9 1305.3,1637.6 1330.9,1637.6 1330.9,1685.3 1502.9,1685.3 1502.9,1764 
				1512,1764 1558.3,1766.8 1558.3,1764 1558.3,1685.3 1557.5,1637.6 			"/>
			<polygon class="st1" points="2140.9,1788.2 2265.9,1790.3 2265.9,1788.2 2265.9,1709.5 2140.9,1709.5 			"/>
			<polygon class="st1" points="2163.6,1042.5 2087.6,1042.5 2087.6,1061.9 2087.6,1135.1 2087.6,1234.7 2087.6,1284.5 
				2087.6,1315.5 2087.6,1366 2087.6,1466.2 2075.2,1466.2 2075.2,1578.8 2075.2,1630.7 2138.1,1630.7 2138.1,1578.8 2408.2,1578.8 
				2408.2,1466.2 2408.2,1366 2378.6,1366 2378.6,1315.5 2408.2,1315.5 2408.2,1284.5 2378.6,1284.5 2378.6,1234.7 2408.2,1234.7 
				2408.2,1135.1 2408.2,1061.9 2163.6,1061.9 			"/>
			<polygon class="st1" points="2166.4,1005.3 2166.4,1059.1 2378.6,1059.1 2378.6,1005.3 2408.2,1005.3 2408.2,926.4 2166.4,926.4 
							"/>
			<rect x="2912.7" y="1861" class="st1" width="76.7" height="118.2"/>
			<polygon class="st1" points="1195.4,346.6 1195.4,420.6 1291.5,420.6 1291.5,346.6 1291.5,346.6 1291.5,297.5 1195.4,297.5 			
				"/>
			<polyline class="st1" points="1767.6,945.1 1767.6,1059.8 1857.5,1059.8 1857.5,945.1 1767.6,945.1 			"/>
			<rect x="3835.3" y="193.9" class="st1" width="137.5" height="87.1"/>
			<polygon class="st1" points="2629.4,325 2716.5,325 2716.5,236.5 2716.5,195.1 2592.1,195.1 2592.1,236.5 2629.4,236.5 			"/>
			<polygon class="st1" points="2623.9,1543.6 2604.5,1543.6 2604.5,1588.5 2703.3,1588.5 2703.3,1543.6 2703.3,1444.1 
				2623.9,1444.1 			"/>
			<polygon class="st1" points="3854.7,2174.5 3801.3,2179.5 3851.8,2208.2 3851.3,2208.2 3792.5,2180.3 3792.5,2208.2 
				3730.3,2208.2 3730.3,2209.8 3730.3,2213.9 3730.3,2260 3866.5,2260 3866.5,2208.2 3854.7,2208.2 			"/>
			<polygon class="st1" points="3792.5,2174.5 3792.5,2180.3 3801.3,2179.5 			"/>
			<rect x="3730.3" y="2265.8" class="st1" width="136.1" height="0.7"/>
			<polygon class="st1" points="1191,1473.8 1191,1588.5 1280.9,1588.5 1280.9,1473.8 1280.9,1451.7 1191,1451.7 			"/>
			<polygon class="st1" points="1178.2,1277.3 1178.2,1240 1120.8,1240 1120.8,1277.3 1120.8,1364.3 1178.2,1364.3 			"/>
			<polygon class="st1" points="36.3,2007.3 36.3,2050.9 146.2,2050.9 146.2,2007.3 146.2,1996.9 36.3,1996.9 			"/>
			<rect x="3580.4" y="1348.7" class="st1" width="134.7" height="97.4"/>
			<rect x="2596.9" y="526.3" class="st1" width="97.4" height="134.7"/>
			<rect x="294.9" y="1920.9" class="st1" width="97.4" height="134.7"/>
			<rect x="686.8" y="1451" class="st1" width="93.3" height="129.9"/>
			<rect x="2151.2" y="1995.5" class="st1" width="49.7" height="98.1"/>
			<polygon class="st1" points="2958.4,2158.6 2908.6,2158.6 2908.6,2207.7 2829.8,2207.7 2829.8,2214.6 2829.8,2231.2 2829.8,2254 
				2829.8,2266.5 2961.2,2266.5 2961.2,2254 2961.2,2231.2 2961.2,2214.6 2961.2,2207.7 2958.4,2207.7 			"/>
			<rect x="3160.9" y="2039.8" class="st1" width="49.7" height="53.9"/>
			<rect x="3223.7" y="2039.8" class="st1" width="50.5" height="53.9"/>
		</g>
	</g>
</g>
</svg>
