<svg xmlns="http://www.w3.org/2000/svg" viewBox="0 0 3024 2336.73"><defs><style>.cls-1{fill:#fff;}.cls-2{fill:#c4c4c4;}.cls-3{fill:#020000;opacity:0.4;}</style></defs><title>2Artboard 2</title><g id="bg_with_black_stroke" data-name="bg with black stroke"><polyline class="cls-1" points="911.22 1286.84 911.22 1131.52 103.04 1131.52 103.04 1868.62 1090.22 1868.62 1090.22 1821.23 1353.47 1821.23 1353.47 1847.56 1385.06 1847.56 1385.06 1837.03 1511.42 1837.03 1511.42 1847.56 1543.01 1847.56 1543.01 1821.23 1800.99 1821.23 1800.99 1868.62 2893.47 1868.62 2893.47 1315.8 2885.57 1315.8 2885.57 391.79 908.58 391.79 911.22 923.55 1258.7 923.55 1258.7 1286.84 911.22 1286.84"/><path d="M2896.47,1871.62H1798v-47.39H1546v26.33h-37.59V1840H1388.06v10.53h-37.59v-26.33H1093.22v47.39H100v-743.1H914.22v155.32H1255.7V926.56H908.23l-2.66-537.77h1983v924h7.9Zm-1092.48-6H2890.47V1318.79h-7.9v-924H911.6l2.6,525.77h347.5v369.28H908.22V1134.52H106v731.1h981.18v-47.39h269.25v26.33h25.59V1834h132.36v10.53H1540v-26.33h264Z"/></g><g id="wall"><path d="M2896.47,1871.62H1798v-47.39H1546v26.33h-37.59V1840H1388.06v10.53h-37.59v-26.33H1093.22v47.39H100v-743.1H914.22v155.32H1255.7V926.56H908.23l-2.66-537.77h1983v924h7.9Zm-1092.48-6H2890.47V1318.79h-7.9v-924H911.6l2.6,525.77h347.5v369.28H908.22V1134.52H106v731.1h981.18v-47.39h269.25v26.33h25.59V1834h132.36v10.53H1540v-26.33h264Z"/><rect x="1435.31" y="393.74" width="6" height="905.58"/><rect x="2335.73" y="749.94" width="6" height="905.58"/><rect x="1966.73" y="743.52" width="918" height="6"/><rect x="1984.73" y="1652.52" width="900" height="6"/><rect x="2335.73" y="1655.52" width="6" height="216"/><rect x="909.1" y="1284.59" width="6" height="586.93"/><rect x="1538.52" y="395.52" width="6" height="905.58"/><rect x="1083.31" y="566.82" width="811.42" height="6"/><polygon points="1777.72 1532.52 1435.62 1532.52 1435.52 1532.51 913.52 1496.51 913.93 1490.53 1435.83 1526.52 1777.72 1526.52 1777.72 1532.52"/><rect x="2692.73" y="566.52" width="6" height="1035"/><polygon points="2794.72 1469.52 1801.72 1469.52 1801.72 1421.52 1807.72 1421.52 1807.72 1463.52 2794.72 1463.52 2794.72 1469.52"/><rect x="1801.73" y="1358.52" width="6" height="36"/><rect x="1801.73" y="1205.52" width="6" height="153"/><polygon points="1807.72 1160.52 1801.72 1160.52 1801.72 914.52 2335.72 914.52 2335.72 920.52 1807.72 920.52 1807.72 1160.52"/><rect x="958.73" y="1553.52" width="1377" height="6"/></g><g id="Grey"><polygon class="cls-2" points="2213.94 1383.45 2213.94 1382.96 2213.94 1300.29 2112.31 1300.29 2111.82 1382.96 2074.86 1383.45 2074.86 1445.2 2213.94 1445.2 2213.94 1383.45"/><polygon class="cls-2" points="840.69 1625.61 840.69 1701.96 870.36 1702.39 870.36 1728.7 870.36 1789.49 906.83 1789.49 906.83 1728.7 906.83 1702.92 907.31 1702.93 907.31 1701.96 907.31 1625.61 840.69 1624.64 840.69 1625.61"/><rect class="cls-2" x="1458.26" y="1139.34" width="75.86" height="92.88"/><polygon class="cls-2" points="838.75 1402.9 838.75 1495.78 913.73 1497.24 913.73 1495.78 913.73 1402.9 911.69 1402.9 838.75 1402.9"/><polygon class="cls-2" points="2337.94 838.33 2304.87 838.33 2292.72 838.33 2292.72 890.85 2337.94 890.85 2337.94 838.33"/><polygon class="cls-2" points="2616.57 774.14 2616.57 810.13 2616.57 917.6 2695.84 917.6 2695.84 810.13 2659.85 774.14 2616.57 774.14"/><polygon class="cls-2" points="2450.27 1014.85 2450.27 915.65 2378.79 915.65 2383.65 1014.85 2387.05 1087.79 2450.27 1087.79 2450.27 1014.85"/><polygon class="cls-2" points="2392.4 1206.44 2452.21 1206.44 2452.21 1121.35 2388.51 1121.35 2392.4 1206.44"/><polygon class="cls-2" points="1809.84 1529.82 1901.75 1530.3 1901.75 1529.82 1901.75 1474.87 1809.84 1474.87 1809.84 1529.82"/><polygon class="cls-2" points="1903.21 1529.33 1903.21 1530.3 1983.44 1529.33 1983.44 1476.33 1903.21 1476.33 1903.21 1529.33"/><polygon class="cls-2" points="2073.89 1476.33 1985.39 1476.33 1985.39 1527.39 1985.39 1529.33 2073.89 1527.39 2073.89 1476.33"/><polygon class="cls-2" points="2075.84 1527.39 2164.34 1525.44 2164.34 1476.33 2075.84 1476.33 2075.84 1525.44 2075.84 1527.39"/><polygon class="cls-2" points="2166.28 1523.01 2166.28 1525.44 2249.92 1523.01 2249.92 1476.33 2166.28 1476.33 2166.28 1523.01"/><rect class="cls-2" x="1456.32" y="746.91" width="75.86" height="114.76"/><rect class="cls-2" x="1458.26" y="1044.51" width="75.86" height="92.88"/><rect class="cls-2" x="1453.4" y="1234.16" width="80.72" height="65.16"/><polygon class="cls-2" points="1308.01 1609.07 1308.01 1628.52 1344.48 1628.52 1363.93 1609.07 1363.93 1559.96 1308.01 1559.96 1308.01 1609.07"/><rect class="cls-2" x="1243.82" y="1559.96" width="62.24" height="68.57"/><polygon class="cls-2" points="1042.01 1505.02 1088.69 1507.93 1088.69 1505.02 1088.69 1457.36 1042.01 1457.36 1042.01 1505.02"/><polygon class="cls-2" points="1090.64 1507.93 1137.32 1510.37 1137.32 1507.93 1137.32 1457.36 1090.64 1457.36 1090.64 1507.93"/><polygon class="cls-2" points="1177.68 1295.43 1000.19 1295.43 1000.19 1421.86 1018.18 1421.86 1018.18 1455.42 1139.27 1455.42 1139.27 1510.85 1145.59 1510.85 1178.17 1512.8 1178.17 1510.85 1178.17 1455.42 1177.68 1421.86 1177.68 1295.43"/><polygon class="cls-2" points="1588.1 1527.87 1676.12 1529.33 1676.12 1527.87 1676.12 1472.44 1588.1 1472.44 1588.1 1527.87"/><polygon class="cls-2" points="1604.15 1003.18 1550.66 1003.18 1550.66 1016.79 1550.66 1068.34 1550.66 1138.36 1550.66 1173.38 1550.66 1195.26 1550.66 1230.76 1550.66 1301.27 1541.9 1301.27 1541.9 1380.53 1541.9 1417 1586.15 1417 1586.15 1380.53 1776.29 1380.53 1776.29 1301.27 1776.29 1230.76 1755.38 1230.76 1755.38 1195.26 1776.29 1195.26 1776.29 1173.38 1755.38 1173.38 1755.38 1138.36 1776.29 1138.36 1776.29 1068.34 1776.29 1016.79 1604.15 1016.79 1604.15 1003.18"/><polygon class="cls-2" points="1606.09 976.92 1606.09 1014.85 1755.38 1014.85 1755.38 976.92 1776.29 976.92 1776.29 921.49 1606.09 921.49 1606.09 976.92"/><rect class="cls-2" x="2131.27" y="1579.09" width="53.98" height="83.15"/><polygon class="cls-2" points="922.87 513.5 922.87 565.53 990.47 565.53 990.47 513.5 990.47 478.97 922.87 478.97 922.87 513.5"/><rect class="cls-2" x="1325.51" y="934.61" width="63.22" height="80.72"/><rect class="cls-2" x="2780.45" y="406.03" width="96.77" height="61.27"/><polygon class="cls-2" points="1931.9 498.26 1993.17 498.26 1993.17 436.02 1993.17 406.84 1905.64 406.84 1905.64 436.02 1931.9 436.02 1931.9 498.26"/><polygon class="cls-2" points="1928.01 1355.73 1914.39 1355.73 1914.39 1387.34 1983.93 1387.34 1983.93 1355.73 1983.93 1285.71 1928.01 1285.71 1928.01 1355.73"/><polygon class="cls-2" points="2794.07 1799.7 2756.45 1803.18 2792.06 1823.37 2791.67 1823.37 2750.3 1803.75 2750.3 1823.37 2706.54 1823.37 2706.54 1824.5 2706.54 1827.42 2706.54 1859.84 2802.33 1859.84 2802.33 1823.37 2794.07 1823.37 2794.07 1799.7"/><polygon class="cls-2" points="2750.3 1799.7 2750.3 1803.75 2756.45 1803.18 2750.3 1799.7"/><rect class="cls-2" x="2706.54" y="1863.89" width="95.8" height="0.49"/><polygon class="cls-2" points="919.79 1306.62 919.79 1387.34 983.01 1387.34 983.01 1306.62 983.01 1291.06 919.79 1291.06 919.79 1306.62"/><polygon class="cls-2" points="900.09 1168.35 900.09 1142.09 859.73 1142.09 859.73 1168.35 859.73 1229.62 900.09 1229.62 900.09 1168.35"/><polygon class="cls-2" points="107.23 1682.02 107.23 1712.66 184.54 1712.66 184.54 1682.02 184.54 1674.73 107.23 1674.73 107.23 1682.02"/><rect class="cls-2" x="2601.01" y="1218.6" width="94.82" height="68.57"/><rect class="cls-2" x="1909.04" y="639.93" width="68.56" height="94.82"/><rect class="cls-2" x="289.26" y="1621.24" width="68.57" height="94.82"/><rect class="cls-2" x="564.97" y="1290.57" width="65.65" height="91.42"/><rect class="cls-2" x="1595.39" y="1673.75" width="35.01" height="69.05"/><polygon class="cls-2" points="2163.37 1788.52 2128.35 1788.52 2128.35 1823.04 2072.92 1823.04 2072.92 1827.9 2072.92 1839.58 2072.92 1855.62 2072.92 1864.38 2165.31 1864.38 2165.31 1855.62 2165.31 1839.58 2165.31 1827.9 2165.31 1823.04 2163.37 1823.04 2163.37 1788.52"/><rect class="cls-2" x="2305.84" y="1704.88" width="35.01" height="37.93"/><rect class="cls-2" x="2350.1" y="1704.88" width="35.5" height="37.93"/><rect class="cls-2" x="1570.73" y="1565.52" width="198" height="63"/><rect class="cls-2" x="1813.73" y="1556.52" width="171" height="72"/><rect class="cls-2" x="1273.73" y="1385.52" width="117" height="135"/><rect class="cls-2" x="2830.73" y="1475.52" width="54" height="135"/><rect class="cls-2" x="1444.73" y="1412.52" width="81" height="108"/><rect class="cls-2" x="2038.73" y="773.52" width="234" height="117"/><rect class="cls-2" x="2218.73" y="1214.52" width="99" height="234"/><rect class="cls-2" x="1102.73" y="746.52" width="225" height="63"/><rect class="cls-2" x="1570.73" y="773.52" width="432" height="117"/><rect class="cls-3" x="1354.73" y="1745.52" width="189" height="81"/><rect class="cls-2" x="958.73" y="1556.52" width="162" height="72"/><rect class="cls-2" x="472.73" y="1484.52" width="135" height="117"/><rect class="cls-2" x="634.73" y="1628.52" width="135" height="54"/><rect class="cls-2" x="2110.73" y="1187.52" width="54" height="108"/><rect class="cls-2" x="1903.73" y="926.52" width="207" height="90"/></g></svg>