<?xml version="1.0" encoding="utf-8"?>
<!-- Generator: Adobe Illustrator 21.1.0, SVG Export Plug-In . SVG Version: 6.00 Build 0)  -->
<svg version="1.1" id="图层_1" xmlns="http://www.w3.org/2000/svg" xmlns:xlink="http://www.w3.org/1999/xlink" x="0px" y="0px"
	 viewBox="0 0 796 576" style="enable-background:new 0 0 796 576;" xml:space="preserve">
<style type="text/css">
	.st0{fill:#C1272D;}
</style>
<g id="图层_2">
	<path d="M794.5,160.5c-0.8,0-1.5,0.7-1.5,1.5v411H348v-84v-2V369c0.3-0.3,0.4-0.6,0.4-1s-0.2-0.8-0.4-1v-74c0-0.8-0.7-1.5-1.5-1.5
		s-1.5,0.7-1.5,1.5v5h-25c-0.8,0-1.5,0.7-1.5,1.5s0.7,1.5,1.5,1.5h25v65.5l-51,0.1V301h5c0.8,0,1.5-0.7,1.5-1.5s-0.7-1.5-1.5-1.5
		h-28c-0.8,0-1.5,0.7-1.5,1.5s0.7,1.5,1.5,1.5h20v65.6l-47,0.1V301h5c0.8,0,1.5-0.7,1.5-1.5s-0.7-1.5-1.5-1.5h-60v17H0v261h796V162
		C796,161.2,795.3,160.5,794.5,160.5z M3,488h27c0.8,0,1.5-0.7,1.5-1.5S30.8,485,30,485H3V318h169v24c0,0.8,0.7,1.5,1.5,1.5
		s1.5-0.7,1.5-1.5v-24h17v-17h49v65.8h-5.6c-0.2-0.2-0.6-0.3-0.9-0.3c-0.3,0-0.6,0.1-0.9,0.3L175,367v-5c0-0.8-0.7-1.5-1.5-1.5
		s-1.5,0.7-1.5,1.5v87h8c0.8,0,1.5-0.7,1.5-1.5s-0.7-1.5-1.5-1.5h-5v-76l58-0.2V446h-31c-0.8,0-1.5,0.7-1.5,1.5s0.7,1.5,1.5,1.5h38
		c0.8,0,1.5-0.7,1.5-1.5s-0.7-1.5-1.5-1.5h-4v-76.2l109-0.3v58.9c-0.3-0.2-0.6-0.4-1-0.4h-25v18h-58c-0.8,0-1.5,0.7-1.5,1.5
		s0.7,1.5,1.5,1.5h61v-18h22c0.4,0,0.7-0.1,1-0.4V487h-23v-13c0-0.8-0.7-1.5-1.5-1.5s-1.5,0.7-1.5,1.5v13h-13
		c-0.8,0-1.5,0.7-1.5,1.5s0.7,1.5,1.5,1.5h39v83h-65v-84h4c0.8,0,1.5-0.7,1.5-1.5s-0.7-1.5-1.5-1.5h-9c-0.8,0-1.5,0.7-1.5,1.5
		s0.7,1.5,1.5,1.5h2v84h-70v-84h45c0.8,0,1.5-0.7,1.5-1.5s-0.7-1.5-1.5-1.5h-50c-0.8,0-1.5,0.7-1.5,1.5s0.7,1.5,1.5,1.5h2v84h-70
		v-84h45c0.8,0,1.5-0.7,1.5-1.5s-0.7-1.5-1.5-1.5h-50c-0.8,0-1.5,0.7-1.5,1.5s0.7,1.5,1.5,1.5h2v84H59v-84h45c0.8,0,1.5-0.7,1.5-1.5
		s-0.7-1.5-1.5-1.5H54c-0.8,0-1.5,0.7-1.5,1.5s0.7,1.5,1.5,1.5h2v84H3V488z"/>
	<path d="M565,23V0H359v23H189v18c0,0.8,0.7,1.5,1.5,1.5s1.5-0.7,1.5-1.5V26h154v114.2h-78V79h-29c-0.8,0-1.5,0.7-1.5,1.5
		s0.7,1.5,1.5,1.5h26v120h-27c-0.8,0-1.5,0.7-1.5,1.5s0.7,1.5,1.5,1.5h30v-61.8h78V260H192V82h24c0.8,0,1.5-0.7,1.5-1.5
		S216.8,79,216,79h-24V69c0-0.8-0.7-1.5-1.5-1.5S189,68.2,189,69v194h157v11c0,0.8,0.7,1.5,1.5,1.5s1.5-0.7,1.5-1.5v-12v-2V26h13V3
		h200v23h231v93c0,0.8,0.7,1.5,1.5,1.5s1.5-0.7,1.5-1.5V23H565z"/>
	<path d="M214,202h-22c-0.8,0-1.5,0.7-1.5,1.5s0.7,1.5,1.5,1.5h22c0.8,0,1.5-0.7,1.5-1.5S214.8,202,214,202z"/>
</g>
<g id="furniture">
	<rect x="359.7" y="119.3" class="st0" width="22.8" height="88.8"/>
	<rect x="359.7" y="235.9" class="st0" width="61.8" height="22.7"/>
	<rect x="533.3" y="333" class="st0" width="22.7" height="76.3"/>
	<rect x="463.5" y="333" class="st0" width="22.7" height="46.1"/>
	<rect x="37.4" y="318.1" class="st0" width="59.5" height="22.7"/>
	<rect x="3" y="318.1" class="st0" width="35.3" height="129.2"/>
	<rect x="37.4" y="424.6" class="st0" width="89.5" height="22.7"/>
	<rect x="87" y="367.9" class="st0" width="43.7" height="22.7"/>
	<rect x="111.8" y="318.1" class="st0" width="59.5" height="22.7"/>
	<rect x="360.3" y="397.5" class="st0" width="15.1" height="88.6"/>
	<rect x="450.4" y="235.9" class="st0" width="44.6" height="22.7"/>
	<rect x="382.9" y="321.3" class="st0" width="27.7" height="17"/>
	<rect x="360.6" y="497" class="st0" width="27.5" height="27.7"/>
	<rect x="457.4" y="443.3" class="st0" width="30.3" height="89.2"/>
	<rect x="591.8" y="443.3" class="st0" width="30.3" height="89.2"/>
	<rect x="691.2" y="386.3" class="st0" width="14.8" height="23.6"/>
	<rect x="720.5" y="386.3" class="st0" width="14.8" height="23.6"/>
	<rect x="705.8" y="379.4" class="st0" width="14.8" height="23.6"/>
	<rect x="525.4" y="443.3" class="st0" width="30.3" height="82.1"/>
	<rect x="360.6" y="527.1" class="st0" width="24.7" height="38.2"/>
	<rect x="382.9" y="339.9" class="st0" width="27.7" height="17"/>
	<rect x="565.3" y="244.7" class="st0" width="117.1" height="13.9"/>
	<rect x="591.4" y="52.6" class="st0" width="55.9" height="21.2"/>
	<rect x="706.2" y="52.6" class="st0" width="38" height="21.2"/>
	<rect x="749.5" y="81.3" class="st0" width="21.2" height="20.5"/>
	<rect x="766.9" y="177.1" class="st0" width="13.9" height="44"/>
	<rect x="510.6" y="153.4" class="st0" width="14.8" height="58.4"/>
	<rect x="430" y="119.3" class="st0" width="28.6" height="73.9"/>
	<path class="st0" d="M447.4,108.2h8.6c0.9,0,1.6,0.7,1.6,1.6v6.6c0,0.9-0.7,1.6-1.6,1.6h-8.6c-0.9,0-1.6-0.7-1.6-1.6v-6.6
		C445.8,108.9,446.5,108.2,447.4,108.2z"/>
	<path class="st0" d="M447.4,104.5h8.6c0.9,0,1.6,0.7,1.6,1.6l0,0c0,0.9-0.7,1.6-1.6,1.6h-8.6c-0.9,0-1.6-0.7-1.6-1.6l0,0
		C445.8,105.2,446.5,104.5,447.4,104.5z"/>
	<path class="st0" d="M432,108.2h8.6c0.9,0,1.6,0.7,1.6,1.6v6.6c0,0.9-0.7,1.6-1.6,1.6H432c-0.9,0-1.6-0.7-1.6-1.6v-6.6
		C430.4,108.9,431.1,108.2,432,108.2z"/>
	<path class="st0" d="M432,104.5h8.6c0.9,0,1.6,0.7,1.6,1.6l0,0c0,0.9-0.7,1.6-1.6,1.6H432c-0.9,0-1.6-0.7-1.6-1.6l0,0
		C430.4,105.2,431.1,104.5,432,104.5z"/>
	<path class="st0" d="M584.6,121.8h8.6c0.9,0,1.6,0.7,1.6,1.6v6.6c0,0.9-0.7,1.6-1.6,1.6h-8.6c-0.9,0-1.6-0.7-1.6-1.6v-6.6
		C583,122.5,583.7,121.8,584.6,121.8z"/>
	<path class="st0" d="M584.6,118.2h8.6c0.9,0,1.6,0.7,1.6,1.6l0,0c0,0.9-0.7,1.6-1.6,1.6h-8.6c-0.9,0-1.6-0.7-1.6-1.6l0,0
		C583,118.9,583.7,118.2,584.6,118.2z"/>
	<path class="st0" d="M570.1,121.8h8.6c0.9,0,1.6,0.7,1.6,1.6v6.6c0,0.9-0.7,1.6-1.6,1.6h-8.6c-0.9,0-1.6-0.7-1.6-1.6v-6.6
		C568.5,122.5,569.3,121.8,570.1,121.8z"/>
	<path class="st0" d="M570.1,118.2h8.6c0.9,0,1.6,0.7,1.6,1.6l0,0c0,0.9-0.7,1.6-1.6,1.6h-8.6c-0.9,0-1.6-0.7-1.6-1.6l0,0
		C568.5,118.9,569.3,118.2,570.1,118.2z"/>
	<path class="st0" d="M612.1,121.8h8.6c0.9,0,1.6,0.7,1.6,1.6v6.6c0,0.9-0.7,1.6-1.6,1.6h-8.6c-0.9,0-1.6-0.7-1.6-1.6v-6.6
		C610.5,122.5,611.2,121.8,612.1,121.8z"/>
	<path class="st0" d="M612.1,118.2h8.6c0.9,0,1.6,0.7,1.6,1.6l0,0c0,0.9-0.7,1.6-1.6,1.6h-8.6c-0.9,0-1.6-0.7-1.6-1.6l0,0
		C610.5,118.9,611.2,118.2,612.1,118.2z"/>
	<path class="st0" d="M597.7,121.8h8.6c0.9,0,1.6,0.7,1.6,1.6v6.6c0,0.9-0.7,1.6-1.6,1.6h-8.6c-0.9,0-1.6-0.7-1.6-1.6v-6.6
		C596.1,122.5,596.8,121.8,597.7,121.8z"/>
	<path class="st0" d="M597.7,118.2h8.6c0.9,0,1.6,0.7,1.6,1.6l0,0c0,0.9-0.7,1.6-1.6,1.6h-8.6c-0.9,0-1.6-0.7-1.6-1.6l0,0
		C596.1,118.9,596.8,118.2,597.7,118.2z"/>
	<path class="st0" d="M639.6,121.8h8.6c0.9,0,1.6,0.7,1.6,1.6v6.6c0,0.9-0.7,1.6-1.6,1.6h-8.6c-0.9,0-1.6-0.7-1.6-1.6v-6.6
		C638,122.5,638.7,121.8,639.6,121.8z"/>
	<path class="st0" d="M639.6,118.2h8.6c0.9,0,1.6,0.7,1.6,1.6l0,0c0,0.9-0.7,1.6-1.6,1.6h-8.6c-0.9,0-1.6-0.7-1.6-1.6l0,0
		C638,118.9,638.7,118.2,639.6,118.2z"/>
	<path class="st0" d="M625.2,121.8h8.6c0.9,0,1.6,0.7,1.6,1.6v6.6c0,0.9-0.7,1.6-1.6,1.6h-8.6c-0.9,0-1.6-0.7-1.6-1.6v-6.6
		C623.6,122.5,624.3,121.8,625.2,121.8z"/>
	<path class="st0" d="M625.2,118.2h8.6c0.9,0,1.6,0.7,1.6,1.6l0,0c0,0.9-0.7,1.6-1.6,1.6h-8.6c-0.9,0-1.6-0.7-1.6-1.6l0,0
		C623.6,118.9,624.3,118.2,625.2,118.2z"/>
	<path class="st0" d="M667.1,121.8h8.6c0.9,0,1.6,0.7,1.6,1.6v6.6c0,0.9-0.7,1.6-1.6,1.6h-8.6c-0.9,0-1.6-0.7-1.6-1.6v-6.6
		C665.5,122.5,666.2,121.8,667.1,121.8z"/>
	<path class="st0" d="M667.1,118.2h8.6c0.9,0,1.6,0.7,1.6,1.6l0,0c0,0.9-0.7,1.6-1.6,1.6h-8.6c-0.9,0-1.6-0.7-1.6-1.6l0,0
		C665.5,118.9,666.2,118.2,667.1,118.2z"/>
	<path class="st0" d="M652.7,121.8h8.6c0.9,0,1.6,0.7,1.6,1.6v6.6c0,0.9-0.7,1.6-1.6,1.6h-8.6c-0.9,0-1.6-0.7-1.6-1.6v-6.6
		C651.1,122.5,651.8,121.8,652.7,121.8z"/>
	<path class="st0" d="M652.7,118.2h8.6c0.9,0,1.6,0.7,1.6,1.6l0,0c0,0.9-0.7,1.6-1.6,1.6h-8.6c-0.9,0-1.6-0.7-1.6-1.6l0,0
		C651.1,118.9,651.8,118.2,652.7,118.2z"/>
	<path class="st0" d="M584.6,145.9h8.6c0.9,0,1.6,0.7,1.6,1.6v6.6c0,0.9-0.7,1.6-1.6,1.6h-8.6c-0.9,0-1.6-0.7-1.6-1.6v-6.6
		C583,146.6,583.7,145.9,584.6,145.9z"/>
	<path class="st0" d="M584.6,142.3h8.6c0.9,0,1.6,0.7,1.6,1.6l0,0c0,0.9-0.7,1.6-1.6,1.6h-8.6c-0.9,0-1.6-0.7-1.6-1.6l0,0
		C583,143,583.7,142.3,584.6,142.3z"/>
	<path class="st0" d="M570.1,145.9h8.6c0.9,0,1.6,0.7,1.6,1.6v6.6c0,0.9-0.7,1.6-1.6,1.6h-8.6c-0.9,0-1.6-0.7-1.6-1.6v-6.6
		C568.5,146.6,569.3,145.9,570.1,145.9z"/>
	<path class="st0" d="M570.1,142.3h8.6c0.9,0,1.6,0.7,1.6,1.6l0,0c0,0.9-0.7,1.6-1.6,1.6h-8.6c-0.9,0-1.6-0.7-1.6-1.6l0,0
		C568.5,143,569.3,142.3,570.1,142.3z"/>
	<path class="st0" d="M612.1,145.9h8.6c0.9,0,1.6,0.7,1.6,1.6v6.6c0,0.9-0.7,1.6-1.6,1.6h-8.6c-0.9,0-1.6-0.7-1.6-1.6v-6.6
		C610.5,146.6,611.2,145.9,612.1,145.9z"/>
	<path class="st0" d="M612.1,142.3h8.6c0.9,0,1.6,0.7,1.6,1.6l0,0c0,0.9-0.7,1.6-1.6,1.6h-8.6c-0.9,0-1.6-0.7-1.6-1.6l0,0
		C610.5,143,611.2,142.3,612.1,142.3z"/>
	<path class="st0" d="M597.7,145.9h8.6c0.9,0,1.6,0.7,1.6,1.6v6.6c0,0.9-0.7,1.6-1.6,1.6h-8.6c-0.9,0-1.6-0.7-1.6-1.6v-6.6
		C596.1,146.6,596.8,145.9,597.7,145.9z"/>
	<path class="st0" d="M597.7,142.3h8.6c0.9,0,1.6,0.7,1.6,1.6l0,0c0,0.9-0.7,1.6-1.6,1.6h-8.6c-0.9,0-1.6-0.7-1.6-1.6l0,0
		C596.1,143,596.8,142.3,597.7,142.3z"/>
	<path class="st0" d="M639.6,145.9h8.6c0.9,0,1.6,0.7,1.6,1.6v6.6c0,0.9-0.7,1.6-1.6,1.6h-8.6c-0.9,0-1.6-0.7-1.6-1.6v-6.6
		C638,146.6,638.7,145.9,639.6,145.9z"/>
	<path class="st0" d="M639.6,142.3h8.6c0.9,0,1.6,0.7,1.6,1.6l0,0c0,0.9-0.7,1.6-1.6,1.6h-8.6c-0.9,0-1.6-0.7-1.6-1.6l0,0
		C638,143,638.7,142.3,639.6,142.3z"/>
	<path class="st0" d="M625.2,145.9h8.6c0.9,0,1.6,0.7,1.6,1.6v6.6c0,0.9-0.7,1.6-1.6,1.6h-8.6c-0.9,0-1.6-0.7-1.6-1.6v-6.6
		C623.6,146.6,624.3,145.9,625.2,145.9z"/>
	<path class="st0" d="M625.2,142.3h8.6c0.9,0,1.6,0.7,1.6,1.6l0,0c0,0.9-0.7,1.6-1.6,1.6h-8.6c-0.9,0-1.6-0.7-1.6-1.6l0,0
		C623.6,143,624.3,142.3,625.2,142.3z"/>
	<path class="st0" d="M667.1,145.9h8.6c0.9,0,1.6,0.7,1.6,1.6v6.6c0,0.9-0.7,1.6-1.6,1.6h-8.6c-0.9,0-1.6-0.7-1.6-1.6v-6.6
		C665.5,146.6,666.2,145.9,667.1,145.9z"/>
	<path class="st0" d="M667.1,142.3h8.6c0.9,0,1.6,0.7,1.6,1.6l0,0c0,0.9-0.7,1.6-1.6,1.6h-8.6c-0.9,0-1.6-0.7-1.6-1.6l0,0
		C665.5,143,666.2,142.3,667.1,142.3z"/>
	<path class="st0" d="M652.7,145.9h8.6c0.9,0,1.6,0.7,1.6,1.6v6.6c0,0.9-0.7,1.6-1.6,1.6h-8.6c-0.9,0-1.6-0.7-1.6-1.6v-6.6
		C651.1,146.6,651.8,145.9,652.7,145.9z"/>
	<path class="st0" d="M652.7,142.3h8.6c0.9,0,1.6,0.7,1.6,1.6l0,0c0,0.9-0.7,1.6-1.6,1.6h-8.6c-0.9,0-1.6-0.7-1.6-1.6l0,0
		C651.1,143,651.8,142.3,652.7,142.3z"/>
	<path class="st0" d="M584.6,170.3h8.6c0.9,0,1.6,0.7,1.6,1.6v6.6c0,0.9-0.7,1.6-1.6,1.6h-8.6c-0.9,0-1.6-0.7-1.6-1.6v-6.6
		C583,171,583.7,170.3,584.6,170.3z"/>
	<path class="st0" d="M584.6,166.7h8.6c0.9,0,1.6,0.7,1.6,1.6l0,0c0,0.9-0.7,1.6-1.6,1.6h-8.6c-0.9,0-1.6-0.7-1.6-1.6l0,0
		C583,167.4,583.7,166.7,584.6,166.7z"/>
	<path class="st0" d="M570.1,170.3h8.6c0.9,0,1.6,0.7,1.6,1.6v6.6c0,0.9-0.7,1.6-1.6,1.6h-8.6c-0.9,0-1.6-0.7-1.6-1.6v-6.6
		C568.5,171,569.3,170.3,570.1,170.3z"/>
	<path class="st0" d="M570.1,166.7h8.6c0.9,0,1.6,0.7,1.6,1.6l0,0c0,0.9-0.7,1.6-1.6,1.6h-8.6c-0.9,0-1.6-0.7-1.6-1.6l0,0
		C568.5,167.4,569.3,166.7,570.1,166.7z"/>
	<path class="st0" d="M612.1,170.3h8.6c0.9,0,1.6,0.7,1.6,1.6v6.6c0,0.9-0.7,1.6-1.6,1.6h-8.6c-0.9,0-1.6-0.7-1.6-1.6v-6.6
		C610.5,171,611.2,170.3,612.1,170.3z"/>
	<path class="st0" d="M612.1,166.7h8.6c0.9,0,1.6,0.7,1.6,1.6l0,0c0,0.9-0.7,1.6-1.6,1.6h-8.6c-0.9,0-1.6-0.7-1.6-1.6l0,0
		C610.5,167.4,611.2,166.7,612.1,166.7z"/>
	<path class="st0" d="M597.7,170.3h8.6c0.9,0,1.6,0.7,1.6,1.6v6.6c0,0.9-0.7,1.6-1.6,1.6h-8.6c-0.9,0-1.6-0.7-1.6-1.6v-6.6
		C596.1,171,596.8,170.3,597.7,170.3z"/>
	<path class="st0" d="M597.7,166.7h8.6c0.9,0,1.6,0.7,1.6,1.6l0,0c0,0.9-0.7,1.6-1.6,1.6h-8.6c-0.9,0-1.6-0.7-1.6-1.6l0,0
		C596.1,167.4,596.8,166.7,597.7,166.7z"/>
	<path class="st0" d="M639.6,170.3h8.6c0.9,0,1.6,0.7,1.6,1.6v6.6c0,0.9-0.7,1.6-1.6,1.6h-8.6c-0.9,0-1.6-0.7-1.6-1.6v-6.6
		C638,171,638.7,170.3,639.6,170.3z"/>
	<path class="st0" d="M639.6,166.7h8.6c0.9,0,1.6,0.7,1.6,1.6l0,0c0,0.9-0.7,1.6-1.6,1.6h-8.6c-0.9,0-1.6-0.7-1.6-1.6l0,0
		C638,167.4,638.7,166.7,639.6,166.7z"/>
	<path class="st0" d="M625.2,170.3h8.6c0.9,0,1.6,0.7,1.6,1.6v6.6c0,0.9-0.7,1.6-1.6,1.6h-8.6c-0.9,0-1.6-0.7-1.6-1.6v-6.6
		C623.6,171,624.3,170.3,625.2,170.3z"/>
	<path class="st0" d="M625.2,166.7h8.6c0.9,0,1.6,0.7,1.6,1.6l0,0c0,0.9-0.7,1.6-1.6,1.6h-8.6c-0.9,0-1.6-0.7-1.6-1.6l0,0
		C623.6,167.4,624.3,166.7,625.2,166.7z"/>
	<path class="st0" d="M667.1,170.3h8.6c0.9,0,1.6,0.7,1.6,1.6v6.6c0,0.9-0.7,1.6-1.6,1.6h-8.6c-0.9,0-1.6-0.7-1.6-1.6v-6.6
		C665.5,171,666.2,170.3,667.1,170.3z"/>
	<path class="st0" d="M667.1,166.7h8.6c0.9,0,1.6,0.7,1.6,1.6l0,0c0,0.9-0.7,1.6-1.6,1.6h-8.6c-0.9,0-1.6-0.7-1.6-1.6l0,0
		C665.5,167.4,666.2,166.7,667.1,166.7z"/>
	<path class="st0" d="M652.7,170.3h8.6c0.9,0,1.6,0.7,1.6,1.6v6.6c0,0.9-0.7,1.6-1.6,1.6h-8.6c-0.9,0-1.6-0.7-1.6-1.6v-6.6
		C651.1,171,651.8,170.3,652.7,170.3z"/>
	<path class="st0" d="M652.7,166.7h8.6c0.9,0,1.6,0.7,1.6,1.6l0,0c0,0.9-0.7,1.6-1.6,1.6h-8.6c-0.9,0-1.6-0.7-1.6-1.6l0,0
		C651.1,167.4,651.8,166.7,652.7,166.7z"/>
	<path class="st0" d="M584.6,194.4h8.6c0.9,0,1.6,0.7,1.6,1.6v6.6c0,0.9-0.7,1.6-1.6,1.6h-8.6c-0.9,0-1.6-0.7-1.6-1.6V196
		C583,195.1,583.7,194.4,584.6,194.4z"/>
	<path class="st0" d="M584.6,190.8h8.6c0.9,0,1.6,0.7,1.6,1.6l0,0c0,0.9-0.7,1.6-1.6,1.6h-8.6c-0.9,0-1.6-0.7-1.6-1.6l0,0
		C583,191.5,583.7,190.8,584.6,190.8z"/>
	<path class="st0" d="M570.1,194.4h8.6c0.9,0,1.6,0.7,1.6,1.6v6.6c0,0.9-0.7,1.6-1.6,1.6h-8.6c-0.9,0-1.6-0.7-1.6-1.6V196
		C568.5,195.1,569.3,194.4,570.1,194.4z"/>
	<path class="st0" d="M570.1,190.8h8.6c0.9,0,1.6,0.7,1.6,1.6l0,0c0,0.9-0.7,1.6-1.6,1.6h-8.6c-0.9,0-1.6-0.7-1.6-1.6l0,0
		C568.5,191.5,569.3,190.8,570.1,190.8z"/>
	<path class="st0" d="M612.1,194.4h8.6c0.9,0,1.6,0.7,1.6,1.6v6.6c0,0.9-0.7,1.6-1.6,1.6h-8.6c-0.9,0-1.6-0.7-1.6-1.6V196
		C610.5,195.1,611.2,194.4,612.1,194.4z"/>
	<path class="st0" d="M612.1,190.8h8.6c0.9,0,1.6,0.7,1.6,1.6l0,0c0,0.9-0.7,1.6-1.6,1.6h-8.6c-0.9,0-1.6-0.7-1.6-1.6l0,0
		C610.5,191.5,611.2,190.8,612.1,190.8z"/>
	<path class="st0" d="M597.7,194.4h8.6c0.9,0,1.6,0.7,1.6,1.6v6.6c0,0.9-0.7,1.6-1.6,1.6h-8.6c-0.9,0-1.6-0.7-1.6-1.6V196
		C596.1,195.1,596.8,194.4,597.7,194.4z"/>
	<path class="st0" d="M597.7,190.8h8.6c0.9,0,1.6,0.7,1.6,1.6l0,0c0,0.9-0.7,1.6-1.6,1.6h-8.6c-0.9,0-1.6-0.7-1.6-1.6l0,0
		C596.1,191.5,596.8,190.8,597.7,190.8z"/>
	<path class="st0" d="M639.6,194.4h8.6c0.9,0,1.6,0.7,1.6,1.6v6.6c0,0.9-0.7,1.6-1.6,1.6h-8.6c-0.9,0-1.6-0.7-1.6-1.6V196
		C638,195.1,638.7,194.4,639.6,194.4z"/>
	<path class="st0" d="M639.6,190.8h8.6c0.9,0,1.6,0.7,1.6,1.6l0,0c0,0.9-0.7,1.6-1.6,1.6h-8.6c-0.9,0-1.6-0.7-1.6-1.6l0,0
		C638,191.5,638.7,190.8,639.6,190.8z"/>
	<path class="st0" d="M625.2,194.4h8.6c0.9,0,1.6,0.7,1.6,1.6v6.6c0,0.9-0.7,1.6-1.6,1.6h-8.6c-0.9,0-1.6-0.7-1.6-1.6V196
		C623.6,195.1,624.3,194.4,625.2,194.4z"/>
	<path class="st0" d="M625.2,190.8h8.6c0.9,0,1.6,0.7,1.6,1.6l0,0c0,0.9-0.7,1.6-1.6,1.6h-8.6c-0.9,0-1.6-0.7-1.6-1.6l0,0
		C623.6,191.5,624.3,190.8,625.2,190.8z"/>
	<path class="st0" d="M667.1,194.4h8.6c0.9,0,1.6,0.7,1.6,1.6v6.6c0,0.9-0.7,1.6-1.6,1.6h-8.6c-0.9,0-1.6-0.7-1.6-1.6V196
		C665.5,195.1,666.2,194.4,667.1,194.4z"/>
	<path class="st0" d="M667.1,190.8h8.6c0.9,0,1.6,0.7,1.6,1.6l0,0c0,0.9-0.7,1.6-1.6,1.6h-8.6c-0.9,0-1.6-0.7-1.6-1.6l0,0
		C665.5,191.5,666.2,190.8,667.1,190.8z"/>
	<path class="st0" d="M652.7,194.4h8.6c0.9,0,1.6,0.7,1.6,1.6v6.6c0,0.9-0.7,1.6-1.6,1.6h-8.6c-0.9,0-1.6-0.7-1.6-1.6V196
		C651.1,195.1,651.8,194.4,652.7,194.4z"/>
	<path class="st0" d="M652.7,190.8h8.6c0.9,0,1.6,0.7,1.6,1.6l0,0c0,0.9-0.7,1.6-1.6,1.6h-8.6c-0.9,0-1.6-0.7-1.6-1.6l0,0
		C651.1,191.5,651.8,190.8,652.7,190.8z"/>
	<path class="st0" d="M447.4,194.1h8.6c0.9,0,1.6,0.7,1.6,1.6v6.6c0,0.9-0.7,1.6-1.6,1.6h-8.6c-0.9,0-1.6-0.7-1.6-1.6v-6.6
		C445.8,194.8,446.5,194.1,447.4,194.1z"/>
	<path class="st0" d="M447.4,204.4h8.6c0.9,0,1.6,0.7,1.6,1.6l0,0c0,0.9-0.7,1.6-1.6,1.6h-8.6c-0.9,0-1.6-0.7-1.6-1.6l0,0
		C445.8,205.1,446.5,204.4,447.4,204.4z"/>
	<path class="st0" d="M432,194.1h8.6c0.9,0,1.6,0.7,1.6,1.6v6.6c0,0.9-0.7,1.6-1.6,1.6H432c-0.9,0-1.6-0.7-1.6-1.6v-6.6
		C430.4,194.8,431.1,194.1,432,194.1z"/>
	<path class="st0" d="M432,204.4h8.6c0.9,0,1.6,0.7,1.6,1.6l0,0c0,0.9-0.7,1.6-1.6,1.6H432c-0.9,0-1.6-0.7-1.6-1.6l0,0
		C430.4,205.1,431.1,204.4,432,204.4z"/>
	<path class="st0" d="M419.1,134.3v-8.6c0-0.9,0.7-1.6,1.6-1.6h6.6c0.9,0,1.6,0.7,1.6,1.6v8.6c0,0.9-0.7,1.6-1.6,1.6h-6.6
		C419.8,135.9,419.1,135.2,419.1,134.3z"/>
	<path class="st0" d="M415.4,134.3v-8.6c0-0.9,0.7-1.6,1.6-1.6l0,0c0.9,0,1.6,0.7,1.6,1.6v8.6c0,0.9-0.7,1.6-1.6,1.6l0,0
		C416.1,135.9,415.4,135.2,415.4,134.3z"/>
	<path class="st0" d="M419.1,149.6V141c0-0.9,0.7-1.6,1.6-1.6h6.6c0.9,0,1.6,0.7,1.6,1.6v8.6c0,0.9-0.7,1.6-1.6,1.6h-6.6
		C419.8,151.2,419.1,150.5,419.1,149.6z"/>
	<path class="st0" d="M415.4,149.6V141c0-0.9,0.7-1.6,1.6-1.6l0,0c0.9,0,1.6,0.7,1.6,1.6v8.6c0,0.9-0.7,1.6-1.6,1.6l0,0
		C416.1,151.2,415.4,150.5,415.4,149.6z"/>
	<path class="st0" d="M419.1,170.7v-8.6c0-0.9,0.7-1.6,1.6-1.6h6.6c0.9,0,1.6,0.7,1.6,1.6v8.6c0,0.9-0.7,1.6-1.6,1.6h-6.6
		C419.8,172.3,419.1,171.6,419.1,170.7z"/>
	<path class="st0" d="M415.4,170.7v-8.6c0-0.9,0.7-1.6,1.6-1.6l0,0c0.9,0,1.6,0.7,1.6,1.6v8.6c0,0.9-0.7,1.6-1.6,1.6l0,0
		C416.1,172.3,415.4,171.6,415.4,170.7z"/>
	<path class="st0" d="M419.1,186.7v-8.6c0-0.9,0.7-1.6,1.6-1.6h6.6c0.9,0,1.6,0.7,1.6,1.6v8.6c0,0.9-0.7,1.6-1.6,1.6h-6.6
		C419.8,188.3,419.1,187.6,419.1,186.7z"/>
	<path class="st0" d="M415.4,186.7v-8.6c0-0.9,0.7-1.6,1.6-1.6l0,0c0.9,0,1.6,0.7,1.6,1.6v8.6c0,0.9-0.7,1.6-1.6,1.6l0,0
		C416.1,188.3,415.4,187.6,415.4,186.7z"/>
	<path class="st0" d="M459.6,134.3v-8.6c0-0.9,0.7-1.6,1.6-1.6h6.6c0.9,0,1.6,0.7,1.6,1.6v8.6c0,0.9-0.7,1.6-1.6,1.6h-6.6
		C460.4,135.9,459.6,135.2,459.6,134.3z"/>
	<path class="st0" d="M470,134.3v-8.6c0-0.9,0.7-1.6,1.6-1.6l0,0c0.9,0,1.6,0.7,1.6,1.6v8.6c0,0.9-0.7,1.6-1.6,1.6l0,0
		C470.7,135.9,470,135.2,470,134.3z"/>
	<path class="st0" d="M459.7,149.6V141c0-0.9,0.7-1.6,1.6-1.6h6.6c0.9,0,1.6,0.7,1.6,1.6v8.6c0,0.9-0.7,1.6-1.6,1.6h-6.6
		C460.4,151.2,459.7,150.5,459.7,149.6z"/>
	<path class="st0" d="M470,149.6V141c0-0.9,0.7-1.6,1.6-1.6l0,0c0.9,0,1.6,0.7,1.6,1.6v8.6c0,0.9-0.7,1.6-1.6,1.6l0,0
		C470.7,151.2,470,150.5,470,149.6z"/>
	<path class="st0" d="M459.7,170.7v-8.6c0-0.9,0.7-1.6,1.6-1.6h6.6c0.9,0,1.6,0.7,1.6,1.6v8.6c0,0.9-0.7,1.6-1.6,1.6h-6.6
		C460.4,172.3,459.7,171.6,459.7,170.7z"/>
	<path class="st0" d="M470,170.7v-8.6c0-0.9,0.7-1.6,1.6-1.6l0,0c0.9,0,1.6,0.7,1.6,1.6v8.6c0,0.9-0.7,1.6-1.6,1.6l0,0
		C470.7,172.3,470,171.6,470,170.7z"/>
	<path class="st0" d="M459.7,186.7v-8.6c0-0.9,0.7-1.6,1.6-1.6h6.6c0.9,0,1.6,0.7,1.6,1.6v8.6c0,0.9-0.7,1.6-1.6,1.6h-6.6
		C460.4,188.3,459.7,187.6,459.7,186.7z"/>
	<path class="st0" d="M470,186.7v-8.6c0-0.9,0.7-1.6,1.6-1.6l0,0c0.9,0,1.6,0.7,1.6,1.6v8.6c0,0.9-0.7,1.6-1.6,1.6l0,0
		C470.7,188.3,470,187.6,470,186.7z"/>
</g>
</svg>
