<?xml version="1.0" encoding="utf-8"?>
<!-- Generator: Adobe Illustrator 19.2.0, SVG Export Plug-In . SVG Version: 6.00 Build 0)  -->
<svg version="1.1" id="图层_1" xmlns="http://www.w3.org/2000/svg" xmlns:xlink="http://www.w3.org/1999/xlink" x="0px" y="0px"
	 viewBox="0 0 70 70" style="enable-background:new 0 0 70 70;" xml:space="preserve">
<style type="text/css">
	.st0{display:none;}
	.st1{display:inline;fill:#1E465A;}
	.st2{display:inline;fill:#73C3CD;}
	.st3{display:inline;fill:#F15A24;}
	.st4{display:none;fill:#1E465A;}
	.st5{display:inline;}
	.st6{fill:#F2F2F2;}
	.st7{fill:#999999;}
	.st8{display:inline;fill:#FFFFFF;}
	.st9{fill:#73C3CD;}
</style>
<g id="air-condition" class="st0">
	<path class="st1" d="M21,51.9c-0.3,0-0.6-0.1-0.8-0.4c-0.3-0.4-0.2-1.1,0.2-1.4c0.3-0.2,1-0.9,1-1.6c0-1.3-0.1-1.8-0.1-1.8
		c-0.1-0.5,0.3-1.1,0.8-1.2c0.5-0.1,1.1,0.2,1.2,0.8c0,0.1,0.1,0.7,0.1,2.2c0,1.9-1.6,3.1-1.8,3.3C21.4,51.9,21.2,51.9,21,51.9z"/>
	<path class="st1" d="M48.4,51.9c-0.2,0-0.4-0.1-0.6-0.2c-0.2-0.1-1.8-1.4-1.8-3.3c0-1.5,0.1-2.1,0.1-2.2c0.1-0.5,0.6-0.9,1.2-0.8
		c0.5,0.1,0.9,0.6,0.8,1.2c0,0-0.1,0.6-0.1,1.8c0,0.7,0.7,1.4,1,1.6c0.4,0.3,0.5,1,0.2,1.4C49,51.8,48.7,51.9,48.4,51.9z"/>
	<path class="st1" d="M35,52c-0.6,0-1-0.4-1-1v-4c0-0.6,0.4-1,1-1s1,0.4,1,1v4C36,51.6,35.6,52,35,52z"/>
	<path class="st1" d="M13.9,35.1c0-4.6,0-6.2,0-10.9c0-2.7,1.4-5,5-5c10.8,0,21.6,0,32.3,0c4.2,0,5,1.4,5,5c0,4.6,0,6.2,0,10.9
		c-0.3,1.5-0.7,3-1,4.5C54.6,42.4,52.9,44,50,44c-10,0-20,0-29.9-0.1c-2.9,0-4.6-1.6-5.2-4.4C14.6,38,14.2,36.6,13.9,35.1z
		 M52.7,34.2c-11.8,0-23.6,0-35.5,0c0,0.5,0,1.6,1.1,1.6c11,0,22.1,0,33.1,0C52.5,35.8,52.8,35.3,52.7,34.2z M18.3,39
		c-0.1,0.2,0.2,1.6,1.9,1.6c9.9,0.1,19.8,0,29.7,0c1,0,1.8-0.4,2-1.6C40.6,39,29.4,39,18.3,39z"/>
</g>
<g id="temperature" class="st0">
	<path class="st2" d="M38.6,39.7V16.2c0-2.9-2.3-5.2-5.2-5.2s-5.3,2.3-5.3,5.2v23.2c-2.9,1.8-5.2,5.2-5.2,9.2
		c0,5.8,4.7,10.4,10.5,10.4s10.3-4.7,10.3-10.4C43.7,44.8,41.5,41.5,38.6,39.7 M33.4,57.3c-4.8,0-8.8-3.9-8.8-8.7
		c0-3.6,2.5-6.8,5.3-8V16.2c0-1.9,1.4-3.5,3.4-3.5s3.4,1.6,3.4,3.5v24.5c3.8,1.4,5.2,4.4,5.2,7.8C41.9,53.4,38.3,57.3,33.4,57.3"/>
	<path class="st2" d="M43.3,20.8h2.9c0.5,0,1-0.4,1-1c0-0.5-0.4-1-1-1h-2.9c-0.5,0-1,0.4-1,1C42.3,20.3,42.8,20.8,43.3,20.8"/>
	<path class="st2" d="M46.2,23.6h-2.9c-0.5,0-1,0.4-1,1c0,0.5,0.4,1,1,1h2.9c0.5,0,1-0.4,1-1C47.1,24.1,46.7,23.6,46.2,23.6"/>
	<path class="st2" d="M46.2,28.4h-2.9c-0.5,0-1,0.4-1,1c0,0.5,0.4,1,1,1h2.9c0.5,0,1-0.4,1-1C47.1,28.9,46.7,28.4,46.2,28.4"/>
	<path class="st2" d="M46.2,33.2h-2.9c-0.5,0-1,0.4-1,1s0.4,1,1,1h2.9c0.5,0,1-0.4,1-1S46.7,33.2,46.2,33.2"/>
	<path class="st2" d="M46.2,38h-2.9c-0.5,0-1,0.4-1,1c0,0.5,0.4,1,1,1h2.9c0.5,0,1-0.4,1-1C47.1,38.5,46.7,38,46.2,38"/>
	<path class="st2" d="M34.8,43.2V28.4c0-0.6-0.8-1.1-1.4-1.1c-0.6,0-1.4,0.5-1.4,1.1v14.8c-2.4,0.6-4.2,2.8-4.2,5.4
		c0,3.1,2.5,5.6,5.6,5.6s5.6-2.5,5.6-5.6C38.9,46,37.2,43.8,34.8,43.2"/>
</g>
<g id="seismic" class="st0">
	<path class="st2" d="M36.5,56C36.4,56,36.4,56,36.5,56c-0.5,0-0.9-0.4-1-0.9l-4.4-35.5L24.4,43c-0.1,0.4-0.6,0.8-1,0.7
		c-0.5,0-0.9-0.3-0.9-0.8l-2.8-13.5l-1.3,4c-0.1,0.4-0.5,0.7-0.9,0.7H11c-0.6,0-1-0.4-1-1s0.4-1,1-1h5.7l2.3-6.9
		c0.1-0.4,0.6-0.7,1-0.7c0.5,0,0.8,0.4,0.9,0.8l2.7,13.2l6.9-24.2c0.1-0.5,0.6-0.8,1-0.7c0.5,0,0.9,0.4,0.9,0.9l4.3,34.8l6.7-29.5
		c0.1-0.5,0.6-0.8,1-0.8c0.5,0,0.9,0.4,0.9,0.9L48,40.2l1.3-7.3c0.1-0.5,0.5-0.8,1-0.8H58c0.6,0,1,0.4,1,1s-0.4,1-1,1h-6.7L49,46.7
		c-0.1,0.5-0.5,0.8-1,0.8s-0.9-0.4-1-0.9l-2.8-21l-6.8,29.6C37.3,55.7,36.9,56,36.5,56z"/>
</g>
<g id="noise" class="st0">
	<path class="st3" d="M33.4,48.7c0,0.9-0.7,1.6-1.6,1.6c-0.4,0-0.8-0.2-1.1-0.5l-8.4-8.4h-6.6c-0.9,0-1.6-0.7-1.6-1.6v-9.7
		c0-0.9,0.7-1.6,1.6-1.6h6.6l8.4-8.4c0.3-0.3,0.7-0.5,1.1-0.5c0.9,0,1.6,0.7,1.6,1.6V48.7z M39.2,40.9C39,41,38.8,41,38.6,41
		c-0.9,0-1.6-0.7-1.6-1.6c0-1.9,2.9-1.4,2.9-4.4S37,32.5,37,30.6c0-0.9,0.7-1.6,1.6-1.6c0.2,0,0.4,0,0.6,0.1
		c2.4,0.9,3.9,3.4,3.9,5.9S41.5,40,39.2,40.9z M41.7,46.9C41.5,47,41.3,47,41.1,47c-0.9,0-1.6-0.7-1.6-1.6c0-0.7,0.4-1.2,1-1.5
		c0.7-0.4,1.3-0.7,1.9-1.1c2.5-1.8,4-4.7,4-7.8s-1.5-6-4-7.8c-0.6-0.5-1.2-0.8-1.9-1.1c-0.6-0.3-1-0.8-1-1.5c0-0.9,0.7-1.6,1.6-1.6
		c0.2,0,0.5,0.1,0.7,0.1c4.7,2,7.8,6.8,7.8,11.9S46.5,44.9,41.7,46.9z M44.3,52.8c-0.2,0.1-0.4,0.1-0.7,0.1c-0.9,0-1.6-0.7-1.6-1.6
		c0-0.7,0.4-1.1,1-1.5c0.4-0.2,0.8-0.3,1.1-0.5c0.7-0.4,1.4-0.8,2.1-1.3c4.1-3.1,6.6-7.9,6.6-13s-2.4-10-6.6-13
		c-0.7-0.5-1.4-0.9-2.1-1.3c-0.4-0.2-0.8-0.3-1.1-0.5c-0.6-0.4-1-0.8-1-1.5c0-0.9,0.7-1.6,1.6-1.6c0.2,0,0.5,0.1,0.7,0.1
		C51.4,20.2,56,27.3,56,35S51.4,49.8,44.3,52.8z"/>
</g>
<g id="fan" class="st0">
	<path class="st1" d="M36.1,28.4c0,0,0.3-7.6-5.7-10c-6.5-2.6-11.9,1.6-12.8,4.2c-0.7,2.1-0.8,5.2,0.8,7c1.8,2.1,6.8,2.4,8.3,1.9
		C29.1,30.4,29.9,27.7,36.1,28.4z"/>
	<path class="st1" d="M28,33.5c0,0-7.6-0.3-10,5.7c-2.6,6.5,1.6,11.9,4.2,12.8c2.1,0.7,5.2,0.8,7-0.8c2.1-1.8,2.4-6.8,1.9-8.3
		C30,40.5,27.3,39.7,28,33.5z"/>
	<path class="st1" d="M33.9,41.6c0,0-0.3,7.6,5.7,10c6.5,2.6,11.9-1.6,12.8-4.2c0.7-2.1,0.8-5.2-0.8-7c-1.8-2.1-6.8-2.4-8.3-1.9
		C41,39.6,40.2,42.3,33.9,41.6z"/>
	<path class="st1" d="M41.2,36.5c0,0,7.6,0.3,10-5.7c2.6-6.5-1.6-11.9-4.2-12.8c-2.1-0.7-5.2-0.8-7,0.8c-2.1,1.8-2.4,6.8-1.9,8.3
		C39.2,29.5,41.9,30.3,41.2,36.5z"/>
	<circle class="st1" cx="35" cy="35.3" r="3.8"/>
</g>
<g id="camera" class="st0">
	<path class="st1" d="M50.7,44.5c0,0.5-0.3,0.9-0.7,1c-0.1,0.1-0.3,0.1-0.4,0.1c-0.3,0-0.6-0.1-0.8-0.3l-7-7v2.9c0,2.8-2.3,5-5,5
		H24.4c-2.8,0-5-2.3-5-5V28.8c0-2.8,2.3-5,5-5h12.3c2.8,0,5,2.3,5,5v2.9l7-7c0.2-0.2,0.5-0.3,0.8-0.3c0.1,0,0.3,0,0.4,0.1
		c0.4,0.2,0.7,0.6,0.7,1L50.7,44.5L50.7,44.5z"/>
</g>
<path id="led" class="st4" d="M43.1,44.9v-7.6c0-0.3,0-0.5,0-0.8c0-4.3-3.8-7.7-8.4-7.7c-4.7,0-8.4,3.5-8.4,7.7c0,0.3,0,0.5,0,0.8
	v7.6H43.1z M45.3,29.9c-0.5,0-0.9-0.3-1.1-0.7c-0.1-0.3-0.1-0.6,0-1c0.1-0.3,0.4-0.6,0.7-0.7l5.3-2.4c0.6-0.3,1.4,0,1.7,0.6
	s0,1.4-0.6,1.7L46,29.8C45.6,29.9,45.4,29.9,45.3,29.9z M40.4,25.3c-0.3,0-0.7-0.1-0.9-0.4c-0.2-0.2-0.4-0.6-0.4-0.9
	s0.1-0.7,0.4-0.9l4.1-4.1c0.5-0.5,1.3-0.5,1.8,0c0.2,0.2,0.4,0.6,0.4,0.9s-0.1,0.7-0.4,0.9L41.3,25C41,25.2,40.7,25.3,40.4,25.3z
	 M34.9,23.8c-0.7,0-1.3-0.6-1.3-1.3v-5.8c0-0.7,0.6-1.3,1.3-1.3s1.3,0.6,1.3,1.3v5.8C36.1,23.2,35.6,23.8,34.9,23.8z M29.2,25.3
	c-0.3,0-0.6-0.1-0.9-0.4l-4.1-4.1c-0.2-0.2-0.4-0.6-0.4-0.9s0.1-0.7,0.4-0.9c0.5-0.5,1.3-0.5,1.8,0l4.1,4.1c0.5,0.5,0.5,1.3,0,1.8
	C29.8,25.2,29.5,25.3,29.2,25.3z M25,29.6c-0.1,0-0.2,0-0.4-0.1l-5.5-1.7c-0.7-0.2-1-0.9-0.8-1.6s0.9-1,1.6-0.8l5.5,1.7
	c0.7,0.2,1,0.9,0.8,1.6C26,29.3,25.5,29.6,25,29.6z M38.9,50.9c0,0.1,0,0.1,0,0.2v2.6c0,0.5,0.4,0.9,0.9,0.9h1.1
	c0.5,0,0.9-0.4,0.9-0.9V51c0-0.1,0-0.1,0-0.2h1.7c0.5,0,0.9-0.4,0.9-0.9v-2.1c0-0.5-0.4-0.9-0.9-0.9H25.8c-0.5,0-0.9,0.4-0.9,0.9V50
	c0,0.5,0.4,0.9,0.9,0.9h1.7c0,0.1,0,0.1,0,0.2v2.6c0,0.5,0.4,0.9,0.9,0.9h1.1c0.5,0,0.9-0.4,0.9-0.9V51c0-0.1,0-0.1,0-0.2h8.5V50.9z
	"/>
<path id="alarm" class="st4" d="M50.6,39.7c0.4-0.4,0.6-1,0.6-1.6c0-1.4-1.1-2.6-2.6-2.6c-1.4,0-2.6,1.2-2.6,2.6
	c0,1.4,1.1,2.6,2.6,2.6c0.3,0,0.5,0,0.7-0.1c0.8,1.7,1,3.1,0.7,4.7c-0.4,2.1-2.1,2.9-3.3,3.1c-0.2-0.6-0.7-1-1.2-1
	c-0.1,0-0.1,0-0.2,0v-0.1c0-1.2-1-2.2-2.2-2.3c-2.8,3.2-6.8,5.1-11.3,5.1s-8.6-2-11.3-5.1c-1.2,0.1-2.2,1.1-2.2,2.3v3.9
	c0,1.3,1,2.3,2.3,2.3H43c1.3,0,2.3-1,2.3-2.3v-0.1c0.1,0,0.1,0,0.2,0c0.6,0,1-0.5,1.2-1.2c2.1-0.3,4.1-1.6,4.7-4.3
	C51.9,43.3,51.4,41.4,50.6,39.7z M45.8,26.5c-0.3,0-0.6-0.2-0.8-0.4c-1.3-1.9-3-3.5-4.9-4.6c-0.5-0.3-0.6-0.9-0.4-1.4
	c0.3-0.5,0.9-0.6,1.4-0.4c2.2,1.3,4.1,3.1,5.6,5.2c0.3,0.5,0.2,1.1-0.3,1.4C46.2,26.5,46,26.5,45.8,26.5z M48.7,24.2
	c-0.3,0-0.6-0.1-0.8-0.4c-1.5-2.2-3.5-4-5.7-5.5c-0.5-0.3-0.6-0.9-0.3-1.4s0.9-0.6,1.4-0.3c2.5,1.6,4.6,3.6,6.2,6
	c0.3,0.5,0.2,1.1-0.2,1.4C49.1,24.1,48.9,24.2,48.7,24.2z M31.8,39.3c-2.4,0-4.4-2-4.4-4.4s2-4.4,4.4-4.4s4.4,2,4.4,4.4
	C36.2,37.4,34.2,39.3,31.8,39.3z M31.8,22c-7.2,0-13,5.8-13,13s5.8,13,13,13s13-5.8,13-13S38.9,22,31.8,22z"/>
<g id="drone" class="st0">
	<path class="st1" d="M26.6,24.4c0-0.6-0.5-1.1-1.1-1.1s-1.1,0.5-1.1,1.1s0.5,1.1,1.1,1.1C26.1,25.4,26.6,24.9,26.6,24.4"/>
	<path class="st1" d="M46.6,24.4c0-0.6-0.5-1.1-1.1-1.1s-1.1,0.5-1.1,1.1s0.5,1.1,1.1,1.1C46.1,25.4,46.6,24.9,46.6,24.4"/>
	<path class="st1" d="M26.6,44.4c0-0.6-0.5-1.1-1.1-1.1s-1.1,0.5-1.1,1.1s0.5,1.1,1.1,1.1C26.1,45.4,26.6,44.9,26.6,44.4"/>
	<path class="st1" d="M46.6,44.4c0-0.6-0.5-1.1-1.1-1.1s-1.1,0.5-1.1,1.1s0.5,1.1,1.1,1.1C46.1,45.4,46.6,44.9,46.6,44.4"/>
	<path class="st1" d="M47.9,34.7c4.5-1,7.9-5.1,7.9-9.9c0-5.6-4.6-10.2-10.2-10.2c-4.8,0-8.9,3.4-9.9,7.9c-1-4.5-5.1-7.9-9.9-7.9
		c-5.6,0-10.2,4.6-10.2,10.2c0,4.8,3.4,8.9,7.9,9.9c-4.5,1-7.9,5.1-7.9,9.9c0,5.6,4.6,10.2,10.2,10.2c4.8,0,8.9-3.4,9.9-7.9
		c1,4.5,5.1,7.9,9.9,7.9c5.6,0,10.2-4.6,10.2-10.2C55.8,39.8,52.5,35.7,47.9,34.7 M45.6,17.3c4.1,0,7.5,3.3,7.5,7.5
		c0,4.1-3.3,7.4-7.5,7.4c-2,0-3.8-0.8-5.1-2.1l3.4-3.5l-1.1-1L39.5,29c-0.8-1.2-1.3-2.7-1.3-4.3C38.2,20.7,41.5,17.3,45.6,17.3
		 M18.4,24.8c0-4.1,3.3-7.5,7.4-7.5s7.4,3.3,7.4,7.5c0,1.7-0.6,3.3-1.6,4.6L28,25.8l-1,1.1l3.7,3.6c-1.3,1.1-3,1.8-4.8,1.8
		C21.7,32.2,18.4,28.9,18.4,24.8 M25.8,51.8c-4.1,0-7.4-3.3-7.4-7.4s3.3-7.5,7.4-7.5c1.7,0,3.3,0.6,4.5,1.5l-3.2,3.3l1.1,1l3.2-3.3
		c1.1,1.3,1.8,3,1.8,4.9C33.3,48.5,29.9,51.8,25.8,51.8 M45.6,51.8c-4.1,0-7.4-3.3-7.4-7.4c0-1.8,0.7-3.5,1.8-4.8l3.1,3l1-1.1
		l-3.1-3c1.3-1,2.9-1.6,4.6-1.6c4.1,0,7.5,3.3,7.5,7.5C53.1,48.5,49.8,51.8,45.6,51.8"/>
	<path class="st1" d="M27,23.4L27,23.4l2.3-1.2c0.1,0,0.1-0.1,0.2-0.2c0.2-0.2,0.3-0.4,0.3-0.6l0.5-1.4v-0.1h-0.1l-1.4,0.5
		c-0.2,0-0.4,0.2-0.5,0.3c-0.1,0-0.1,0.1-0.1,0.2s-0.1,0.1-0.1,0.2l-1.2,2.1C26.9,23.3,26.9,23.3,27,23.4C26.9,23.4,27,23.4,27,23.4
		"/>
	<path class="st1" d="M21,29.4L21,29.4l1.4-0.6c0.2,0,0.4-0.2,0.5-0.3c0,0,0.1-0.1,0.1-0.2s0.1-0.1,0.1-0.2l1.2-2.1v-0.1h-0.1
		l-2.3,1.2c-0.1,0-0.1,0.1-0.2,0.2c-0.2,0.2-0.3,0.4-0.3,0.6l-0.5,1.4C20.9,29.3,20.9,29.3,21,29.4C20.9,29.4,21,29.4,21,29.4"/>
	<path class="st1" d="M48.3,28.5L48.3,28.5c0.2,0.2,0.4,0.3,0.6,0.3l1.4,0.5l0,0h0.1v-0.1l-0.5-1.4c0-0.2-0.2-0.4-0.3-0.6
		c0,0-0.1-0.1-0.2-0.1c-0.1,0-0.1-0.1-0.2-0.1l-2.1-1.2H47v0.1l1.2,2.3C48.1,28.4,48.2,28.4,48.3,28.5"/>
	<path class="st1" d="M43.1,20.9L43.1,20.9c-0.1-0.1-0.1-0.2-0.2-0.2c-0.2-0.2-0.4-0.3-0.6-0.3L41,19.9h-0.1V20l0.5,1.4
		c0,0.2,0.2,0.4,0.3,0.5c0,0,0.1,0.1,0.2,0.1c0.1,0,0.1,0.1,0.2,0.1l2.1,1.2c0,0,0,0,0.1,0h0.1v-0.1L43.1,20.9z"/>
	<path class="st1" d="M23.1,40.9L23.1,40.9c-0.1-0.1-0.1-0.2-0.2-0.2c-0.2-0.2-0.4-0.3-0.6-0.3L21,39.9h-0.1V40l0.5,1.4
		c0,0.2,0.2,0.4,0.3,0.5c0,0,0.1,0.1,0.2,0.1s0.1,0.1,0.2,0.1l2.1,1.2c0,0,0,0,0.1,0h0.1v-0.1L23.1,40.9z"/>
	<path class="st1" d="M29.5,47.3L29.5,47.3c-0.1,0-0.1-0.1-0.2-0.1s-0.1-0.1-0.2-0.1L27,45.9h-0.1V46l1.2,2.3c0,0.1,0.1,0.1,0.2,0.2
		c0.2,0.2,0.4,0.3,0.6,0.3l1.4,0.5l0,0h0.1v-0.1l-0.5-1.4C29.8,47.6,29.7,47.5,29.5,47.3"/>
	<path class="st1" d="M44.2,45.9l-2.3,1.2c-0.1,0-0.1,0.1-0.2,0.2c-0.2,0.2-0.3,0.4-0.3,0.5l-0.5,1.4v0.1H41l0,0l1.4-0.5
		c0.2,0,0.4-0.2,0.5-0.3c0.1,0,0.1-0.1,0.1-0.2c0-0.1,0.1-0.1,0.1-0.2l1.2-2.1L44.2,45.9C44.3,45.9,44.3,45.9,44.2,45.9"/>
	<path class="st1" d="M50.2,39.9l-1.4,0.5c-0.2,0-0.4,0.2-0.5,0.3c0,0-0.1,0.1-0.1,0.2c0,0.1-0.1,0.1-0.1,0.2l-1.2,2.1v0.1H47
		c0,0,0,0,0.1,0l2.3-1.2c0.1,0,0.1-0.1,0.2-0.2c0.2-0.2,0.3-0.4,0.3-0.5l0.5-1.4v-0.1C50.3,39.9,50.3,39.9,50.2,39.9"/>
</g>
<g id="tropo" class="st0">
	<path class="st1" d="M56.5,24.7h-9.4c2.4,2.8,3.8,6.4,3.8,10.3s-1.4,7.5-3.8,10.3h9.4c1.5-3.1,2.3-6.6,2.3-10.3
		S57.9,27.8,56.5,24.7z"/>
	<path class="st1" d="M22.9,24.7h-9.4c-1.5,3.1-2.3,6.6-2.3,10.3s0.8,7.2,2.3,10.3h9.4c-2.4-2.8-3.8-6.4-3.8-10.3
		S20.6,27.5,22.9,24.7z"/>
	<circle class="st1" cx="35" cy="35" r="10.3"/>
</g>
<g id="meeting" class="st0">
	<g class="st5">
		<g>
			<path class="st6" d="M31.1,37.9c-1.1-5.4-10.8-10-6.7-18.3c-5.8,3.2-9.5,12.8-6.5,19.8C21.2,46.8,32,44.6,31.1,37.9z"/>
			<path class="st6" d="M52.2,42.1c-4.2,9.3-15.1,13.4-24.3,9.2c-2.3-1-4.2-2.4-5.8-4.1c8.4,3.3,15.6-0.1,14.4-7.1
				c-1.3-7.8-10.2-13.2-8.3-20c0.6-2.1,2.3-3.1,4.5-3.7c3.4-0.5,6.9-0.1,10.2,1.4C52.2,22,56.3,32.9,52.2,42.1z"/>
		</g>
	</g>
</g>
<g id="close" class="st0">
	<g class="st5">
		
			<rect x="34.3" y="10.9" transform="matrix(0.6988 -0.7154 0.7154 0.6988 -14.0959 35.6974)" class="st7" width="2" height="47.4"/>
	</g>
	<g class="st5">
		
			<rect x="11.6" y="34.3" transform="matrix(0.7156 -0.6985 0.6985 0.7156 -14.6341 34.6798)" class="st7" width="47.4" height="2"/>
	</g>
</g>
<g id="add" class="st0">
	<path class="st8" d="M35,45.2c-5.6,0-10.2-4.6-10.2-10.2S29.4,24.8,35,24.8S45.2,29.4,45.2,35S40.6,45.2,35,45.2z M40.9,34.2
		c0-0.5-0.4-0.8-0.8-0.8h-3.4V30c0-0.5-0.4-0.8-0.8-0.8h-1.7c-0.5,0-0.8,0.4-0.8,0.8v3.4H30c-0.5,0-0.8,0.4-0.8,0.8v1.7
		c0,0.5,0.4,0.8,0.8,0.8h3.4v3.4c0,0.5,0.4,0.8,0.8,0.8h1.7c0.5,0,0.8-0.4,0.8-0.8v-3.4h3.4c0.5,0,0.8-0.4,0.8-0.8V34.2z"/>
</g>
<g id="humidity" class="st0">
	<path class="st2" d="M45.5,40.5c0-8.6-10.4-22.2-10.4-22.2c-8.7,12.9-10.3,18.7-10.5,21c-0.1,0.6-0.2,1.2-0.2,1.8
		c0,5.8,4.7,10.5,10.5,10.5S45.4,46.8,45.4,41C45.5,40.9,45.5,41.5,45.5,40.5L45.5,40.5z"/>
</g>
<g id="speed" class="st0">
	<path class="st2" d="M34.7,36.1c-1,0-1.9-0.8-1.9-1.9c0-1,0.8-1.9,1.9-1.9c0.4,0,0.7,0.1,1,0.3s0.5,0.4,0.7,0.7
		c0.1,0.3,0.2,0.6,0.2,0.9C36.5,35.3,35.7,36.1,34.7,36.1z M41.4,27.4L41.4,27.4c-0.2,0-0.3,0-0.5,0s-0.3,0-0.5,0.1
		c-0.2,0-0.4,0.1-0.6,0.2c-0.2,0.1-0.4,0.2-0.7,0.3c-0.2,0.1-0.4,0.3-0.6,0.5c-0.2,0.2-0.3,0.4-0.5,0.7c-0.1,0.3-0.3,0.5-0.5,0.7
		s-0.3,0.4-0.5,0.7c-0.7-0.4-1.5-0.7-2.3-0.7c-2.4,0-4.3,1.9-4.3,4.3s1.9,4.3,4.3,4.3c2.4,0,4.3-1.9,4.3-4.3c0-0.8-0.2-1.6-0.6-2.2
		c0.2-0.2,0.5-0.3,0.7-0.5s0.5-0.3,0.7-0.5c0.3-0.1,0.5-0.3,0.7-0.5s0.3-0.4,0.5-0.6c0.1-0.2,0.2-0.4,0.3-0.7
		c0.1-0.2,0.1-0.4,0.2-0.6c0-0.2,0.1-0.4,0.1-0.5c0-0.2,0-0.3,0-0.4s0-0.1,0-0.1C41.6,27.5,41.5,27.4,41.4,27.4z M31.3,25l-1.8-3.5
		c1.6-0.7,3.4-1.1,5.2-1.1c0.2,0,0.4,0,0.6,0l-0.6,4.5c-0.4-0.1-0.9-0.1-1.3-0.1C32.7,24.8,32,24.8,31.3,25z M37.7,20.7
		c1.8,0.4,3.4,1.2,4.8,2.3l-3.4,3.5c-0.6-0.4-1.3-0.8-2-1L37.7,20.7z M24.4,29.7c-1.3,1.9-2,4.2-2,6.7c0,0.9,0.1,1.8,0.3,2.6
		c-0.7-1.7-1.2-3.5-1.2-5.4c0-1.8,0.4-3.5,1-5L24.4,29.7z M27.3,22.6l1.6,3.1c-1.1,0.5-2,1.2-2.9,2l-2.4-1.4
		C24.6,24.9,25.8,23.6,27.3,22.6z M48.5,43.6H20.8C19,40.9,18,37.7,18,34.3c0-9.2,7.5-16.7,16.7-16.7S51.3,25,51.3,34.3
		C51.3,37.7,50.3,40.9,48.5,43.6z M34.7,13.1c-11.6,0-21.1,9.5-21.1,21.2S23,55.4,34.7,55.4s21.1-9.5,21.1-21.1
		C55.7,22.6,46.3,13.1,34.7,13.1z"/>
</g>
<g id="route" class="st0">
	<path class="st2" d="M32,38.2l-6,12.9c-0.3,0.7-1.1,1.2-1.9,1.2s-1.6-0.4-1.9-1.2l-6-12.9c-0.4-0.9-0.5-2-0.5-3
		c0-4.7,3.8-8.5,8.5-8.5s8.5,3.8,8.5,8.5C32.6,36.3,32.4,37.3,32,38.2 M24.1,31c-2.3,0-4.2,1.9-4.2,4.3c0,2.3,1.9,4.3,4.2,4.3
		s4.2-1.9,4.2-4.3C28.3,32.9,26.4,31,24.1,31"/>
	<path class="st2" d="M50,23.8l-3.1,6.7c-0.2,0.4-0.6,0.6-1,0.6s-0.8-0.2-1-0.6l-3.2-6.7c-0.2-0.5-0.3-1-0.3-1.6
		c0-2.5,2-4.5,4.4-4.5s4.4,2,4.4,4.5C50.3,22.7,50.3,23.3,50,23.8 M45.9,20c-1.2,0-2.2,1-2.2,2.2s1,2.2,2.2,2.2s2.2-1,2.2-2.2
		C48.1,21,47.1,20,45.9,20"/>
	<path class="st2" d="M45,36c-0.2,0-0.3,0-0.5-0.1c-0.6-0.3-0.8-0.9-0.6-1.5c0-0.1,0.1-0.2,0.1-0.3c0.2-0.6,0.9-0.9,1.4-0.7
		c0.6,0.2,0.9,0.9,0.7,1.5c-0.1,0.2-0.1,0.3-0.2,0.5C45.9,35.7,45.5,36,45,36"/>
	<path class="st2" d="M32.9,44.4c-0.3,0-0.6-0.1-0.8-0.3c-0.5-0.4-0.5-1.2,0-1.6c0.2-0.2,0.4-0.4,0.7-0.6c0.5-0.4,1.2-0.4,1.6,0.1
		c0.4,0.5,0.4,1.2-0.1,1.6c-0.2,0.2-0.4,0.4-0.5,0.5C33.5,44.3,33.2,44.4,32.9,44.4 M37,41.6c-0.4,0-0.9-0.3-1.1-0.7
		c-0.2-0.6,0-1.3,0.6-1.5c0.3-0.1,0.6-0.2,0.9-0.3c0.6-0.2,1.2,0.1,1.4,0.7c0.2,0.6-0.1,1.2-0.7,1.4c-0.2,0.1-0.5,0.2-0.7,0.3
		C37.3,41.5,37.2,41.6,37,41.6 M41.7,39.7c-0.4,0-0.7-0.2-0.9-0.5c-0.4-0.5-0.2-1.2,0.3-1.6c0.2-0.1,0.4-0.3,0.6-0.5
		c0.5-0.4,1.2-0.3,1.6,0.2c0.4,0.5,0.3,1.2-0.2,1.6c-0.2,0.2-0.5,0.4-0.7,0.6C42.1,39.7,41.9,39.7,41.7,39.7"/>
	<path class="st2" d="M30.3,48.3c-0.1,0-0.3,0-0.4-0.1c-0.6-0.2-0.9-0.9-0.6-1.5c0,0,0.1-0.2,0.2-0.5c0.3-0.6,1-0.8,1.5-0.5
		c0.6,0.3,0.8,1,0.5,1.5c-0.1,0.2-0.1,0.3-0.2,0.3C31.2,48,30.7,48.3,30.3,48.3"/>
</g>
<g id="infrared">
	<path id="SVGID_1_" class="st9" d="M29.1,30.2c4.7,0,8.6,3.8,8.6,8.6c0,0.6,0.4,1,1,1s1-0.4,1-1c0-5.8-4.7-10.6-10.6-10.6
		c-0.6,0-1,0.4-1,1C28.1,29.8,28.6,30.2,29.1,30.2z M29.1,23.7c8.4,0,15.2,6.8,15.2,15.1c0,0.6,0.4,1,1,1s1-0.4,1-1
		c0-9.5-7.7-17.1-17.2-17.1c-0.6,0-1,0.4-1,1C28.1,23.2,28.6,23.7,29.1,23.7z M29.1,16.8c12.2,0,22.1,9.9,22.1,22c0,0.6,0.4,1,1,1
		s1-0.4,1-1c0-13.3-10.8-24-24.1-24c-0.6,0-1,0.4-1,1C28.1,16.3,28.6,16.8,29.1,16.8z M18.8,51c0,0.1,0,0.1-0.1,0.2
		c0,0.1-0.1,0.1-0.2,0.1s-0.2,0.1-0.3,0.1c-0.1,0-0.3,0-0.5,0s-0.4,0-0.5,0s-0.3,0-0.3-0.1c-0.1,0-0.1-0.1-0.2-0.1
		c0-0.1-0.1-0.1-0.1-0.2V35.2c0-0.1,0-0.1,0.1-0.2c0-0.1,0.1-0.1,0.2-0.1s0.2-0.1,0.3-0.1c0.1,0,0.3,0,0.5,0s0.4,0,0.5,0
		s0.3,0,0.3,0.1c0.1,0,0.1,0.1,0.2,0.1c0,0.1,0.1,0.1,0.1,0.2V51z M30.9,39.4c0-0.6-0.1-1.2-0.4-1.6c-0.3-0.4-0.8-0.8-1.5-1
		c-0.2-0.1-0.5-0.1-0.7-0.1c-0.3,0-0.6,0-1.1,0h-1.8v5.5h2.1c0.6,0,1.1-0.1,1.5-0.2c0.4-0.1,0.8-0.3,1.1-0.6
		c0.3-0.2,0.5-0.5,0.6-0.9C30.8,40.2,30.9,39.8,30.9,39.4z M34.2,51c0,0.1,0,0.1,0,0.2c0,0.1-0.1,0.1-0.2,0.1
		c-0.1,0-0.2,0.1-0.4,0.1s-0.4,0-0.6,0c-0.2,0-0.4,0-0.5,0s-0.3,0-0.3-0.1c-0.1,0-0.2-0.1-0.2-0.2c0-0.1-0.1-0.2-0.1-0.3L30.3,47
		c-0.2-0.4-0.4-0.8-0.6-1.2s-0.4-0.7-0.7-1c-0.3-0.3-0.6-0.5-0.9-0.6c-0.4-0.1-0.8-0.2-1.3-0.2h-1.5v7c0,0.1,0,0.1-0.1,0.2
		c0,0.1-0.1,0.1-0.2,0.1s-0.2,0.1-0.3,0.1c-0.1,0-0.3,0-0.5,0s-0.4,0-0.5,0s-0.3,0-0.3-0.1c-0.1,0-0.1-0.1-0.2-0.1
		c0-0.1-0.1-0.1-0.1-0.2V35.8c0-0.3,0.1-0.6,0.3-0.7c0.2-0.1,0.4-0.2,0.6-0.2h3.5c0.4,0,0.8,0,1,0c0.3,0,0.5,0,0.7,0.1
		c0.6,0.1,1.2,0.3,1.7,0.5s0.9,0.5,1.2,0.9s0.6,0.8,0.7,1.3c0.2,0.5,0.2,1,0.2,1.6s-0.1,1-0.2,1.5c-0.1,0.4-0.4,0.8-0.6,1.2
		c-0.3,0.3-0.6,0.6-1,0.9c-0.4,0.2-0.8,0.5-1.3,0.6c0.3,0.1,0.5,0.3,0.7,0.5s0.4,0.4,0.6,0.7s0.4,0.5,0.5,0.9
		c0.2,0.3,0.3,0.7,0.5,1.1l1.5,3.6c0.1,0.3,0.2,0.5,0.2,0.6C34.1,50.8,34.2,50.9,34.2,51z"/>
</g>
</svg>
